<svg width="803" height="804" viewBox="0 0 803 804" fill="none" xmlns="http://www.w3.org/2000/svg">
<path d="M796.429 401.494C796.389 619.723 619.449 796.597 401.23 796.555C183.007 796.511 6.13881 619.568 6.17981 401.339C6.22081 183.112 183.162 6.23682 401.381 6.27943C569.746 6.31231 719.599 113.029 774.679 272.129C789.049 313.749 796.399 357.465 796.429 401.494C796.429 405.239 802.269 405.823 802.269 402.009C802.239 180.499 622.649 0.954224 401.144 0.986821C179.64 1.01942 0.101817 180.617 0.132817 402.126C0.163817 623.64 179.757 803.183 401.261 803.149C554.618 803.128 694.539 715.652 761.729 577.793C788.289 522.993 802.149 462.908 802.269 402.009C802.269 398.333 796.429 397.749 796.429 401.494Z" fill="black"/>
<path d="M796.429 401.494C796.389 619.723 619.449 796.597 401.23 796.555C183.007 796.511 6.13881 619.568 6.17981 401.339C6.22081 183.112 183.162 6.23682 401.381 6.27943C569.746 6.31231 719.599 113.029 774.679 272.129C789.049 313.749 796.399 357.465 796.429 401.494C796.429 405.239 802.269 405.823 802.269 402.009C802.239 180.499 622.649 0.954224 401.144 0.986821C179.64 1.01942 0.101817 180.617 0.132817 402.126C0.163817 623.64 179.757 803.183 401.261 803.149C554.618 803.128 694.539 715.652 761.729 577.793C788.289 522.993 802.149 462.908 802.269 402.009C802.269 398.333 796.429 397.749 796.429 401.494Z" fill="black"/>
<path d="M103.864 533.092L102.49 533.607C101.356 530.755 100.222 529.175 99.0536 528.728C98.2906 528.508 97.4796 528.508 96.7166 528.728C95.3526 529.061 94.0126 529.474 92.6966 529.965L60.3996 541.269C57.6856 542.162 56.1046 543.193 55.6926 544.258C55.2806 545.323 55.1776 547.11 56.0366 550.065L54.5586 550.615L47.4126 529.999L48.8206 529.587C50.0236 532.37 51.1576 533.916 52.2566 534.363C54.1466 534.806 56.1326 534.562 57.8576 533.676L72.2876 528.625L64.2476 506.085L49.7826 511.135C46.9996 512.097 45.4536 513.059 45.0076 514.193C44.5606 515.327 44.5606 517.079 45.3506 520.035L43.9766 520.482L36.7266 499.866L38.1356 499.35C39.3376 502.133 40.4716 503.783 41.5716 504.126C42.6706 504.47 44.4576 504.47 47.1376 503.508L80.2596 491.86C82.9396 490.967 84.5196 490.005 85.0346 488.871C85.6126 486.957 85.4886 484.899 84.6916 483.063L86.1006 482.513L93.3156 503.13L91.8386 503.542C90.8076 500.759 89.5706 499.11 88.4026 498.766C87.6806 498.491 86.9006 498.395 86.1346 498.491C84.7606 498.776 83.4136 499.192 82.1146 499.728L67.6836 504.882L75.5176 527.25L90.8416 521.959C93.6246 521.066 95.2056 520.035 95.6176 518.97C96.2496 517.024 96.1256 514.915 95.2736 513.059L96.6826 512.544L103.864 533.092Z" fill="black"/>
<path d="M103.864 533.092L102.49 533.607C101.356 530.755 100.222 529.175 99.0536 528.728C98.2906 528.508 97.4796 528.508 96.7166 528.728C95.3526 529.061 94.0126 529.474 92.6966 529.965L60.3996 541.269C57.6856 542.162 56.1046 543.193 55.6926 544.258C55.2806 545.323 55.1776 547.11 56.0366 550.065L54.5586 550.615L47.4126 529.999L48.8206 529.587C50.0236 532.37 51.1576 533.916 52.2566 534.363C54.1466 534.806 56.1326 534.562 57.8576 533.676L72.2876 528.625L64.2476 506.085L49.7826 511.135C46.9996 512.097 45.4536 513.059 45.0076 514.193C44.5606 515.327 44.5606 517.079 45.3506 520.035L43.9766 520.482L36.7266 499.866L38.1356 499.35C39.3376 502.133 40.4716 503.783 41.5716 504.126C42.6706 504.47 44.4576 504.47 47.1376 503.508L80.2596 491.86C82.9396 490.967 84.5196 490.005 85.0346 488.871C85.6126 486.957 85.4886 484.899 84.6916 483.063L86.1006 482.513L93.3156 503.13L91.8386 503.542C90.8076 500.759 89.5706 499.11 88.4026 498.766C87.6806 498.491 86.9006 498.395 86.1346 498.491C84.7606 498.776 83.4136 499.192 82.1146 499.728L67.6836 504.882L75.5176 527.25L90.8416 521.959C93.6246 521.066 95.2056 520.035 95.6176 518.97C96.2496 517.024 96.1256 514.915 95.2736 513.059L96.6826 512.544L103.864 533.092Z" fill="black"/>
<path d="M63.4541 425.614L77.1981 427.264L83.1761 469.079H81.6991C81.5891 467.145 80.7851 465.313 79.4311 463.925C77.6511 463.039 75.6141 462.833 73.6931 463.341L38.9561 468.392C36.9981 468.447 35.1291 469.217 33.7001 470.557C32.7681 472.254 32.5001 474.236 32.9441 476.123L31.4661 476.398L25.4531 435.166L36.5861 433.242L36.8611 435.166C33.4251 436.3 31.3631 437.606 30.6761 439.255C29.7001 442.127 29.6041 445.226 30.4011 448.154L31.8791 458.703C31.9161 459.414 32.1951 460.094 32.6691 460.627C33.1151 460.971 33.8031 460.971 34.9361 460.799L52.1161 458.256L50.5011 446.676C50.5041 444.433 49.7001 442.261 48.2331 440.56C46.3091 439.451 44.0791 438.994 41.8771 439.255L41.6021 437.537L59.8121 434.891V436.644C56.6861 437.537 54.7611 438.568 54.1431 439.77C53.2531 441.804 53.0711 444.079 53.6281 446.23L55.2081 458.153L74.6211 455.37C76.3731 455.37 77.2321 454.683 77.2321 453.549C77.3661 452.511 77.3661 451.46 77.2321 450.421C77.2321 449.288 76.8541 446.986 76.2701 443.344C75.5481 434.479 71.3911 429.325 63.6261 427.848L63.4541 425.614Z" fill="black"/>
<path d="M63.4541 425.614L77.1981 427.264L83.1761 469.079H81.6991C81.5891 467.145 80.7851 465.313 79.4311 463.925C77.6511 463.039 75.6141 462.833 73.6931 463.341L38.9561 468.392C36.9981 468.447 35.1291 469.217 33.7001 470.557C32.7681 472.254 32.5001 474.236 32.9441 476.123L31.4661 476.398L25.4531 435.166L36.5861 433.242L36.8611 435.166C33.4251 436.3 31.3631 437.606 30.6761 439.255C29.7001 442.127 29.6041 445.226 30.4011 448.154L31.8791 458.703C31.9161 459.414 32.1951 460.094 32.6691 460.627C33.1151 460.971 33.8031 460.971 34.9361 460.799L52.1161 458.256L50.5011 446.676C50.5041 444.433 49.7001 442.261 48.2331 440.56C46.3091 439.451 44.0791 438.994 41.8771 439.255L41.6021 437.537L59.8121 434.891V436.644C56.6861 437.537 54.7611 438.568 54.1431 439.77C53.2531 441.804 53.0711 444.079 53.6281 446.23L55.2081 458.153L74.6211 455.37C76.3731 455.37 77.2321 454.683 77.2321 453.549C77.3661 452.511 77.3661 451.46 77.2321 450.421C77.2321 449.288 76.8541 446.986 76.2701 443.344C75.5481 434.479 71.3911 429.325 63.6261 427.848L63.4541 425.614Z" fill="black"/>
<path d="M76.5165 409.327H74.9695C75.2555 407.132 74.7565 404.905 73.5615 403.04C71.9115 401.885 69.8775 401.418 67.8915 401.734H32.8115C29.8225 401.734 28.0015 402.078 27.2115 403.04C26.0605 404.912 25.5175 407.098 25.6655 409.293H24.1875V386.031H25.6655C25.6655 389.468 26.1805 391.427 27.1425 392.217C28.7055 393.505 30.7365 394.079 32.7435 393.797H67.8235C70.7785 393.797 72.7025 393.385 73.5955 392.251C74.7495 390.409 75.2345 388.224 74.9695 386.066H76.4475L76.5165 409.327Z" fill="black"/>
<path d="M76.5165 409.327H74.9695C75.2555 407.132 74.7565 404.905 73.5615 403.04C71.9115 401.885 69.8775 401.418 67.8915 401.734H32.8115C29.8225 401.734 28.0015 402.078 27.2115 403.04C26.0605 404.912 25.5175 407.098 25.6655 409.293H24.1875V386.031H25.6655C25.6655 389.468 26.1805 391.427 27.1425 392.217C28.7055 393.505 30.7365 394.079 32.7435 393.797H67.8235C70.7785 393.797 72.7025 393.385 73.5955 392.251C74.7495 390.409 75.2345 388.224 74.9695 386.066H76.4475L76.5165 409.327Z" fill="black"/>
<path d="M28.4489 341.879L29.9259 342.154C29.4179 344.168 29.6379 346.298 30.5449 348.167C31.9569 349.556 33.8569 350.333 35.8359 350.333L72.7709 356.002C74.2489 356.277 75.2109 356.002 75.7259 355.143C76.0839 354.49 76.3279 353.782 76.4479 353.047C76.4479 352.257 76.8599 350.882 77.1349 348.682C78.4099 344.054 78.5609 339.19 77.5819 334.492C76.0699 330.847 73.3209 327.854 69.8169 326.04L70.0909 324.116L83.1479 329.957L76.7909 371.601L75.3139 371.326C75.8019 369.446 75.5409 367.453 74.5919 365.76C73.1629 364.389 71.2799 363.581 69.3009 363.492L34.6329 358.269C32.7469 357.709 30.7199 357.895 28.9639 358.785C27.9329 359.334 27.1429 361.052 26.6279 363.939H25.0469L28.4489 341.879Z" fill="black"/>
<path d="M28.4489 341.879L29.9259 342.154C29.4179 344.168 29.6379 346.298 30.5449 348.167C31.9569 349.556 33.8569 350.333 35.8359 350.333L72.7709 356.002C74.2489 356.277 75.2109 356.002 75.7259 355.143C76.0839 354.49 76.3279 353.782 76.4479 353.047C76.4479 352.257 76.8599 350.882 77.1349 348.682C78.4099 344.054 78.5609 339.19 77.5819 334.492C76.0699 330.847 73.3209 327.854 69.8169 326.04L70.0909 324.116L83.1479 329.957L76.7909 371.601L75.3139 371.326C75.8019 369.446 75.5409 367.453 74.5919 365.76C73.1629 364.389 71.2799 363.581 69.3009 363.492L34.6329 358.269C32.7469 357.709 30.7199 357.895 28.9639 358.785C27.9329 359.334 27.1429 361.052 26.6279 363.939H25.0469L28.4489 341.879Z" fill="black"/>
<path d="M65.5536 294.326C51.0886 288.863 45.3506 280.822 48.3746 270.274C52.8406 260.344 62.3926 257.905 77.0296 262.783C91.5976 268.35 97.4386 276.527 94.3806 286.836C90.1206 296.765 80.6376 299.273 65.7256 294.223L65.5536 294.326ZM79.9156 254.537C63.8016 249.657 52.4286 254.537 45.5566 269.415C41.2966 285.186 46.9656 296.25 62.7366 302.778C79.0226 307.588 90.4736 302.629 97.0946 287.901C101.459 272.301 95.8576 261.237 80.1906 254.537H79.9156Z" fill="black"/>
<path d="M65.5536 294.326C51.0886 288.863 45.3506 280.822 48.3746 270.274C52.8406 260.344 62.3926 257.905 77.0296 262.783C91.5976 268.35 97.4386 276.527 94.3806 286.836C90.1206 296.765 80.6376 299.273 65.7256 294.223L65.5536 294.326ZM79.9156 254.537C63.8016 249.657 52.4286 254.537 45.5566 269.415C41.2966 285.186 46.9656 296.25 62.7366 302.778C79.0226 307.588 90.4736 302.629 97.0946 287.901C101.459 272.301 95.8576 261.237 80.1906 254.537H79.9156Z" fill="black"/>
<path d="M94.7262 176.128L96.0312 176.918C94.5542 179.805 94.1072 181.867 94.8292 183.104C96.1622 185.519 98.2342 187.445 100.738 188.601L136.094 210.35L135.406 211.484L80.4322 218.116V218.288L106.648 234.402C108.799 236.102 111.407 237.13 114.138 237.357C115.822 237.357 117.574 235.983 119.12 233.44L120.426 234.23L110.771 249.899L109.466 249.143C111.115 246.257 111.527 244.16 110.84 242.854C110.153 241.549 108.332 239.419 104.827 237.357L75.1412 219.078C73.4232 219.248 71.7402 219.689 70.1592 220.384C69.0122 221.074 68.0842 222.075 67.4792 223.27L66.2422 222.48L73.1142 211.072L121.216 205.471L98.7462 191.728C96.5432 190.064 93.9042 189.073 91.1522 188.876C89.6062 188.876 87.9232 190.25 86.2052 192.861L84.8992 192.071L94.7262 176.128Z" fill="black"/>
<path d="M94.7262 176.128L96.0312 176.918C94.5542 179.805 94.1072 181.867 94.8292 183.104C96.1622 185.519 98.2342 187.445 100.738 188.601L136.094 210.35L135.406 211.484L80.4322 218.116V218.288L106.648 234.402C108.799 236.102 111.407 237.13 114.138 237.357C115.822 237.357 117.574 235.983 119.12 233.44L120.426 234.23L110.771 249.899L109.466 249.143C111.115 246.257 111.527 244.16 110.84 242.854C110.153 241.549 108.332 239.419 104.827 237.357L75.1412 219.078C73.4232 219.248 71.7402 219.689 70.1592 220.384C69.0122 221.074 68.0842 222.075 67.4792 223.27L66.2422 222.48L73.1142 211.072L121.216 205.471L98.7462 191.728C96.5432 190.064 93.9042 189.073 91.1522 188.876C89.6062 188.876 87.9232 190.25 86.2052 192.861L84.8992 192.071L94.7262 176.128Z" fill="black"/>
<path d="M164.571 134.244L165.636 135.206C164.159 136.923 163.437 138.332 163.609 139.294C164.032 140.896 164.945 142.326 166.22 143.383L177.833 154.276C176.442 160.826 173.308 166.88 168.763 171.799C163.451 178.031 155.779 181.768 147.598 182.107C141.241 182.382 135.057 179.392 128.941 173.31C118.084 160.827 117.798 148.309 128.082 135.755C130.563 133.057 133.521 130.843 136.809 129.227C137.812 128.703 138.747 128.057 139.592 127.303C140.802 126.153 141.083 124.333 140.279 122.871L141.482 121.565L153.954 132.629L152.752 133.934C143.921 130.017 136.809 131.048 131.14 137.061C123.306 146.647 125.024 157.024 136.259 167.985C147.436 177.743 157.689 178.178 167.01 169.29C171.477 164.24 172.783 160.598 171.03 158.227L161.719 149.431C159.623 147.437 157.974 146.406 156.84 146.475C155.706 146.544 154.229 147.437 151.858 149.603L150.896 148.641L164.571 134.244Z" fill="black"/>
<path d="M164.571 134.244L165.636 135.206C164.159 136.923 163.437 138.332 163.609 139.294C164.032 140.896 164.945 142.326 166.22 143.383L177.833 154.276C176.442 160.826 173.308 166.88 168.763 171.799C163.451 178.031 155.779 181.768 147.598 182.107C141.241 182.382 135.057 179.392 128.941 173.31C118.084 160.827 117.798 148.309 128.082 135.755C130.563 133.057 133.521 130.843 136.809 129.227C137.812 128.703 138.747 128.057 139.592 127.303C140.802 126.153 141.083 124.333 140.279 122.871L141.482 121.565L153.954 132.629L152.752 133.934C143.921 130.017 136.809 131.048 131.14 137.061C123.306 146.647 125.024 157.024 136.259 167.985C147.436 177.743 157.689 178.178 167.01 169.29C171.477 164.24 172.783 160.598 171.03 158.227L161.719 149.431C159.623 147.437 157.974 146.406 156.84 146.475C155.706 146.544 154.229 147.437 151.858 149.603L150.896 148.641L164.571 134.244Z" fill="black"/>
<path d="M186.184 97.6505L203.707 121.084C209.616 129.193 209.17 135.893 202.47 141.39C200.831 142.867 198.659 143.611 196.457 143.452C195.065 143.249 193.78 142.583 192.815 141.562C191.609 139.901 191.863 137.597 193.399 136.236C195.241 134.955 197.749 135.25 199.24 136.923C200.717 137.989 201.782 138.229 202.47 137.714C204.222 136.58 203.947 134.656 201.782 131.804L179.827 102.426C178.075 100.09 176.597 98.9905 175.464 98.9905C173.351 99.0805 171.33 99.8793 169.726 101.258L168.867 100.056L186.802 86.5522L187.764 87.7549C185.222 89.8507 183.916 91.4314 183.847 92.6339C183.778 93.8366 184.363 95.5201 186.184 97.7879V97.6505Z" fill="black"/>
<path d="M186.184 97.6505L203.707 121.084C209.616 129.193 209.17 135.893 202.47 141.39C200.831 142.867 198.659 143.611 196.457 143.452C195.065 143.249 193.78 142.583 192.815 141.562C191.609 139.901 191.863 137.597 193.399 136.236C195.241 134.955 197.749 135.25 199.24 136.923C200.717 137.989 201.782 138.229 202.47 137.714C204.222 136.58 203.947 134.656 201.782 131.804L179.827 102.426C178.075 100.09 176.597 98.9905 175.464 98.9905C173.351 99.0805 171.33 99.8793 169.726 101.258L168.867 100.056L186.802 86.5522L187.764 87.7549C185.222 89.8507 183.916 91.4314 183.847 92.6339C183.778 93.8366 184.363 95.5201 186.184 97.7879V97.6505Z" fill="black"/>
<path d="M231.055 120.019L230.334 118.713C233.117 117.063 234.697 115.586 235.041 114.383C235.384 113.181 235.041 111.394 233.391 108.783L216.212 78.3058C214.7 75.6945 213.395 74.2858 212.192 74.0452C209.986 73.9604 207.815 74.6001 206.008 75.8663L205.32 74.5606L225.523 63.05L226.314 64.3558C223.427 66.0394 221.847 67.5169 221.606 68.7194C221.366 69.9221 221.606 71.8462 223.084 74.2858L240.504 104.866C241.878 107.408 243.184 108.783 244.592 109.058C246.778 109.15 248.928 108.51 250.708 107.237L251.395 108.542L231.055 120.019Z" fill="black"/>
<path d="M231.055 120.019L230.334 118.713C233.117 117.063 234.697 115.586 235.041 114.383C235.384 113.181 235.041 111.394 233.391 108.783L216.212 78.3058C214.7 75.6945 213.395 74.2858 212.192 74.0452C209.986 73.9604 207.815 74.6001 206.008 75.8663L205.32 74.5606L225.523 63.05L226.314 64.3558C223.427 66.0394 221.847 67.5169 221.606 68.7194C221.366 69.9221 221.606 71.8462 223.084 74.2858L240.504 104.866C241.878 107.408 243.184 108.783 244.592 109.058C246.778 109.15 248.928 108.51 250.708 107.237L251.395 108.542L231.055 120.019Z" fill="black"/>
<path d="M272.602 53.2921L288.613 70.4719L271.64 76.7598L272.602 53.2921ZM309.984 81.2609C308.101 80.2652 306.459 78.8694 305.174 77.1721L271.365 41.8159L269.887 42.3312L267.998 84.422C268.077 88.6183 267.565 92.8047 266.486 96.8602C265.922 98.2751 264.785 99.3859 263.359 99.9183L263.875 101.292L278.443 95.8981L277.927 94.5237C274.491 95.8294 272.499 95.4514 271.743 93.2868C271.44 92.2958 271.289 91.2647 271.296 90.2288L271.537 80.2988L290.812 73.2551L296.378 79.268C297.598 80.4851 298.649 81.8601 299.505 83.3568C299.893 84.2797 299.762 85.339 299.161 86.1399C298.745 86.5155 298.281 86.8389 297.787 87.102C297.038 87.5154 296.241 87.8384 295.416 88.0641L295.931 89.5416L314.657 82.6696L314.141 81.1922C312.812 81.744 311.314 81.744 309.984 81.1922V81.2609Z" fill="black"/>
<path d="M272.602 53.2921L288.613 70.4719L271.64 76.7598L272.602 53.2921ZM309.984 81.2609C308.101 80.2652 306.459 78.8694 305.174 77.1721L271.365 41.8159L269.887 42.3312L267.998 84.422C268.077 88.6183 267.565 92.8047 266.486 96.8602C265.922 98.2751 264.785 99.3859 263.359 99.9183L263.875 101.292L278.443 95.8981L277.927 94.5237C274.491 95.8294 272.499 95.4514 271.743 93.2868C271.44 92.2958 271.289 91.2647 271.296 90.2288L271.537 80.2988L290.812 73.2551L296.378 79.268C297.598 80.4851 298.649 81.8601 299.505 83.3568C299.893 84.2797 299.762 85.339 299.161 86.1399C298.745 86.5155 298.281 86.8389 297.787 87.102C297.038 87.5154 296.241 87.8384 295.416 88.0641L295.931 89.5416L314.657 82.6696L314.141 81.1922C312.812 81.744 311.314 81.744 309.984 81.1922V81.2609Z" fill="black"/>
<path d="M374.159 19.8599L374.331 21.3374C371.204 22.0245 369.349 22.9867 368.834 24.3954C367.861 26.9548 367.717 29.7554 368.421 32.4012L374.228 73.6329L372.922 73.8047L332.791 35.6997L337.12 66.2113C337.124 68.972 338.014 71.6589 339.663 73.8734C340.694 75.1791 342.79 75.5914 345.848 75.1791L346.019 76.6566L327.809 79.268L327.569 77.7904C330.764 77.172 332.688 76.2099 333.307 74.8355C334.269 72.2351 334.389 69.3988 333.65 66.7266L328.771 32.3668C327.558 31.1181 326.139 30.0842 324.579 29.3088C323.312 28.9064 321.961 28.8471 320.663 29.137L320.25 27.4878L333.581 25.6323L368.593 58.9956L364.951 32.8823C364.841 30.1129 363.893 27.442 362.237 25.22C361.275 24.0862 359.282 23.6395 356.052 23.9144V22.4025L374.159 19.8599Z" fill="black"/>
<path d="M374.159 19.8599L374.331 21.3374C371.204 22.0245 369.349 22.9867 368.834 24.3954C367.861 26.9548 367.717 29.7554 368.421 32.4012L374.228 73.6329L372.922 73.8047L332.791 35.6997L337.12 66.2113C337.124 68.972 338.014 71.6589 339.663 73.8734C340.694 75.1791 342.79 75.5914 345.848 75.1791L346.019 76.6566L327.809 79.268L327.569 77.7904C330.764 77.172 332.688 76.2099 333.307 74.8355C334.269 72.2351 334.389 69.3988 333.65 66.7266L328.771 32.3668C327.558 31.1181 326.139 30.0842 324.579 29.3088C323.312 28.9064 321.961 28.8471 320.663 29.137L320.25 27.4878L333.581 25.6323L368.593 58.9956L364.951 32.8823C364.841 30.1129 363.893 27.442 362.237 25.22C361.275 24.0862 359.282 23.6395 356.052 23.9144V22.4025L374.159 19.8599Z" fill="black"/>
<path d="M451.061 46.8666L450.889 48.3441C448.621 48.3441 447.144 48.619 446.56 49.3749C445.519 50.6892 444.993 52.3388 445.083 54.0135L444.017 69.8533C438.073 73.0037 431.394 74.5101 424.673 74.217C416.489 74.0044 408.748 70.4392 403.268 64.3558C399.076 59.6828 397.324 52.9483 398.114 44.324C400.839 28.0375 410.312 19.8484 426.529 19.7568C430.188 19.9924 433.778 20.8524 437.146 22.2994C438.159 22.8005 439.252 23.1258 440.375 23.2615C442.437 23.2615 443.811 22.4712 444.189 20.8907H445.941L445.426 37.7957H443.674C441.063 28.5529 435.668 23.6051 427.457 23.0897C415.087 23.25 408.216 31.1413 406.841 46.7635C406.395 61.5726 412.682 69.7846 425.498 71.3308C432.095 71.5026 435.806 70.1969 436.458 67.4138L437.317 54.5976C437.757 52.6449 437.451 50.5975 436.458 48.8595C436.012 48.0692 434.122 47.4851 430.961 47.1072V45.7328L451.061 46.8666Z" fill="black"/>
<path d="M451.061 46.8666L450.889 48.3441C448.621 48.3441 447.144 48.619 446.56 49.3749C445.519 50.6892 444.993 52.3388 445.083 54.0135L444.017 69.8533C438.073 73.0037 431.394 74.5101 424.673 74.217C416.489 74.0044 408.748 70.4392 403.268 64.3558C399.076 59.6828 397.324 52.9483 398.114 44.324C400.839 28.0375 410.312 19.8484 426.529 19.7568C430.188 19.9924 433.778 20.8524 437.146 22.2994C438.159 22.8005 439.252 23.1258 440.375 23.2615C442.437 23.2615 443.811 22.4712 444.189 20.8907H445.941L445.426 37.7957H443.674C441.063 28.5529 435.668 23.6051 427.457 23.0897C415.087 23.25 408.216 31.1413 406.841 46.7635C406.395 61.5726 412.682 69.7846 425.498 71.3308C432.095 71.5026 435.806 70.1969 436.458 67.4138L437.317 54.5976C437.757 52.6449 437.451 50.5975 436.458 48.8595C436.012 48.0692 434.122 47.4851 430.961 47.1072V45.7328L451.061 46.8666Z" fill="black"/>
<path d="M528.607 41.541L528.16 42.9497C524.93 42.3312 522.834 42.503 521.701 43.5682C519.873 45.5435 518.677 48.0206 518.265 50.6807L512.595 70.5406C509.159 84.2845 500.845 89.0949 487.342 85.2809C474.801 81.6045 470.334 73.3581 474.182 60.6107L481.054 36.9367C481.82 35.1147 481.906 33.0784 481.295 31.1987C480.779 30.1335 479.13 29.1715 476.175 28.1407L476.587 26.7319L497.855 32.7449L497.409 34.2224C495.44 33.5362 493.296 33.5362 491.327 34.2224C490.262 34.7378 489.403 36.387 488.716 39.1701L481.844 63.4968C478.408 73.8048 481.398 80.1269 490.468 82.6352C495.275 84.3965 500.652 83.467 504.59 80.1957C506.95 77.3665 508.558 73.9861 509.263 70.3688L515.104 49.7529C516.128 47.202 516.382 44.4056 515.825 41.7128C515.378 40.1665 513.729 38.9296 510.843 37.9676L511.29 36.5931L528.607 41.541Z" fill="black"/>
<path d="M528.607 41.541L528.16 42.9497C524.93 42.3312 522.834 42.503 521.701 43.5682C519.873 45.5435 518.677 48.0206 518.265 50.6807L512.595 70.5406C509.159 84.2845 500.845 89.0949 487.342 85.2809C474.801 81.6045 470.334 73.3581 474.182 60.6107L481.054 36.9367C481.82 35.1147 481.906 33.0784 481.295 31.1987C480.779 30.1335 479.13 29.1715 476.175 28.1407L476.587 26.7319L497.855 32.7449L497.409 34.2224C495.44 33.5362 493.296 33.5362 491.327 34.2224C490.262 34.7378 489.403 36.387 488.716 39.1701L481.844 63.4968C478.408 73.8048 481.398 80.1269 490.468 82.6352C495.275 84.3965 500.652 83.467 504.59 80.1957C506.95 77.3665 508.558 73.9861 509.263 70.3688L515.104 49.7529C516.128 47.202 516.382 44.4056 515.825 41.7128C515.378 40.1665 513.729 38.9296 510.843 37.9676L511.29 36.5931L528.607 41.541Z" fill="black"/>
<path d="M599.419 76.1411L598.629 77.5156C595.742 76.2098 593.681 75.9693 592.375 76.7252C590.118 78.2502 588.348 80.3991 587.29 82.91L567.878 119.607L566.744 118.988L556.436 64.6306L541.971 91.8779C540.37 94.1141 539.494 96.7893 539.463 99.5401C539.635 101.189 541.009 102.77 543.723 104.247L543.036 105.553L526.75 96.9288L527.437 95.6231C530.392 97.0319 532.488 97.3755 533.794 96.5852C536.079 95.0232 537.838 92.8077 538.844 90.2287L555.234 59.4766C555.003 57.7364 554.467 56.0499 553.653 54.4945C552.856 53.4349 551.805 52.5951 550.595 52.055L551.282 50.7493L563.136 57.0372L571.76 104.591L584.129 81.3295C585.682 79.0122 586.507 76.2844 586.5 73.4955C586.5 72.018 585.023 70.4375 582.24 68.8569L582.927 67.5512L599.419 76.1411Z" fill="black"/>
<path d="M599.419 76.1411L598.629 77.5156C595.742 76.2098 593.681 75.9693 592.375 76.7252C590.118 78.2502 588.348 80.3991 587.29 82.91L567.878 119.607L566.744 118.988L556.436 64.6306L541.971 91.8779C540.37 94.1141 539.494 96.7893 539.463 99.5401C539.635 101.189 541.009 102.77 543.723 104.247L543.036 105.553L526.75 96.9288L527.437 95.6231C530.392 97.0319 532.488 97.3755 533.794 96.5852C536.079 95.0232 537.838 92.8077 538.844 90.2287L555.234 59.4766C555.003 57.7364 554.467 56.0499 553.653 54.4945C552.856 53.4349 551.805 52.5951 550.595 52.055L551.282 50.7493L563.136 57.0372L571.76 104.591L584.129 81.3295C585.682 79.0122 586.507 76.2844 586.5 73.4955C586.5 72.018 585.023 70.4375 582.24 68.8569L582.927 67.5512L599.419 76.1411Z" fill="black"/>
<path d="M586.188 131.186L587.115 129.949C588.679 131.52 590.747 132.482 592.956 132.663C594.193 132.663 595.67 131.357 597.491 128.918L618.759 101.052C620.58 98.6812 621.366 96.9632 621.096 95.7263C620.82 94.4893 619.619 92.9431 617.008 90.7784L617.969 89.5415L636.417 103.663L635.556 104.866C633.936 103.41 631.886 102.497 629.716 102.255C628.346 102.255 626.766 103.491 625.116 105.69L603.675 133.797C602.229 135.22 601.412 137.162 601.409 139.191C601.581 140.497 602.954 142.077 605.496 144.07L604.637 145.307L586.188 131.186Z" fill="black"/>
<path d="M586.188 131.186L587.115 129.949C588.679 131.52 590.747 132.482 592.956 132.663C594.193 132.663 595.67 131.357 597.491 128.918L618.759 101.052C620.58 98.6812 621.366 96.9632 621.096 95.7263C620.82 94.4893 619.619 92.9431 617.008 90.7784L617.969 89.5415L636.417 103.663L635.556 104.866C633.936 103.41 631.886 102.497 629.716 102.255C628.346 102.255 626.766 103.491 625.116 105.69L603.675 133.797C602.229 135.22 601.412 137.162 601.409 139.191C601.581 140.497 602.954 142.077 605.496 144.07L604.637 145.307L586.188 131.186Z" fill="black"/>
<path d="M690.952 156.956L689.922 157.918C688.102 155.409 684.702 155.409 679.612 157.918L635.432 175.578L634.672 174.788L652.952 130.979C654.122 128.702 654.892 126.237 655.222 123.695C655.242 122.081 654.582 120.531 653.402 119.435L654.462 118.37L668.822 133.522L667.692 134.587C666.622 133.368 665.352 132.335 663.942 131.529C663.052 131.292 662.092 131.601 661.502 132.319C659.812 134.815 658.492 137.547 657.592 140.428L646.252 167.332L675.252 155.822C675.382 155.713 675.532 155.631 675.702 155.581C677.332 155.033 678.872 154.208 680.232 153.142C682.152 151.561 681.712 149.397 678.992 146.51L680.062 145.479L690.952 156.956Z" fill="black"/>
<path d="M690.952 156.956L689.922 157.918C688.102 155.409 684.702 155.409 679.612 157.918L635.432 175.578L634.672 174.788L652.952 130.979C654.122 128.702 654.892 126.237 655.222 123.695C655.242 122.081 654.582 120.531 653.402 119.435L654.462 118.37L668.822 133.522L667.692 134.587C666.622 133.368 665.352 132.335 663.942 131.529C663.052 131.292 662.092 131.601 661.502 132.319C659.812 134.815 658.492 137.547 657.592 140.428L646.252 167.332L675.252 155.822C675.382 155.713 675.532 155.631 675.702 155.581C677.332 155.033 678.872 154.208 680.232 153.142C682.152 151.561 681.712 149.397 678.992 146.51L680.062 145.479L690.952 156.956Z" fill="black"/>
<path d="M697.24 235.983L684.08 240.14L661.5 204.337L662.74 203.581C664.39 205.918 665.8 207.223 667 207.395C668.96 207.457 670.87 206.81 672.4 205.574L702.12 186.849C704.45 185.37 705.76 183.962 706.03 182.656C706.31 181.35 706.03 179.804 704.45 177.262L705.76 176.471L727.89 211.587L718.47 217.84L717.44 216.191C720.16 213.855 721.53 211.759 721.46 209.938C721.2 206.909 720 204.038 718.03 201.726L712.39 192.758C711.84 191.796 711.33 191.281 710.88 191.281C710.43 191.281 709.68 191.281 708.71 192.071L693.91 201.382L700.36 211.69C702.01 214.37 703.49 215.951 704.97 216.294C707.15 216.578 709.37 216.118 711.26 214.988L712.18 216.466L696.69 226.225L695.73 224.747C698.27 222.652 699.57 220.934 699.75 219.524C699.74 217.31 698.97 215.165 697.58 213.442L691.19 203.135L674.66 213.442C673.08 214.198 672.47 215.16 673.02 216.225C673.34 217.202 673.78 218.136 674.32 219.008C674.84 220.039 676.14 222.067 678.07 225.091C682.33 232.856 688.37 235.914 696 234.059L697.24 235.983Z" fill="black"/>
<path d="M697.24 235.983L684.08 240.14L661.5 204.337L662.74 203.581C664.39 205.918 665.8 207.223 667 207.395C668.96 207.457 670.87 206.81 672.4 205.574L702.12 186.849C704.45 185.37 705.76 183.962 706.03 182.656C706.31 181.35 706.03 179.804 704.45 177.262L705.76 176.471L727.89 211.587L718.47 217.84L717.44 216.191C720.16 213.855 721.53 211.759 721.46 209.938C721.2 206.909 720 204.038 718.03 201.726L712.39 192.758C711.84 191.796 711.33 191.281 710.88 191.281C710.43 191.281 709.68 191.281 708.71 192.071L693.91 201.382L700.36 211.69C702.01 214.37 703.49 215.951 704.97 216.294C707.15 216.578 709.37 216.118 711.26 214.988L712.18 216.466L696.69 226.225L695.73 224.747C698.27 222.652 699.57 220.934 699.75 219.524C699.74 217.31 698.97 215.165 697.58 213.442L691.19 203.135L674.66 213.442C673.08 214.198 672.47 215.16 673.02 216.225C673.34 217.202 673.78 218.136 674.32 219.008C674.84 220.039 676.14 222.067 678.07 225.091C682.33 232.856 688.37 235.914 696 234.059L697.24 235.983Z" fill="black"/>
<path d="M743.481 251.995C744.441 252.947 745.121 254.131 745.481 255.431C748.711 263.677 746.961 269.174 740.431 271.889C733.041 274.912 727.201 270.652 723.011 259.073L741.051 252.201C742.181 251.686 742.971 251.686 743.481 252.201V251.995ZM713.181 293.982L725.891 271.682C730.841 279.791 736.681 282.575 743.381 279.963C751.661 276.527 753.691 268.624 748.981 256.358L741.111 236.326L739.601 236.842C740.431 238.612 740.631 240.614 740.151 242.511C739.711 243.542 738.121 244.607 735.511 245.637L703.631 258.179C702.351 258.695 701.041 259.131 699.711 259.485C698.971 259.699 698.191 259.699 697.441 259.485C696.141 259.21 694.941 257.63 693.801 254.95L692.391 255.568L700.331 275.668L701.741 275.153C700.791 273.334 700.541 271.235 701.021 269.243C701.461 268.109 703.041 266.975 705.721 266.013L720.501 260.172L722.221 264.192L706.381 290.512L710.811 302.366L712.221 301.747C711.271 299.189 711.631 296.331 713.181 294.085V293.982Z" fill="black"/>
<path d="M743.481 251.995C744.441 252.947 745.121 254.131 745.481 255.431C748.711 263.677 746.961 269.174 740.431 271.889C733.041 274.912 727.201 270.652 723.011 259.073L741.051 252.201C742.181 251.686 742.971 251.686 743.481 252.201V251.995ZM713.181 293.982L725.891 271.682C730.841 279.791 736.681 282.575 743.381 279.963C751.661 276.527 753.691 268.624 748.981 256.358L741.111 236.326L739.601 236.842C740.431 238.612 740.631 240.614 740.151 242.511C739.711 243.542 738.121 244.607 735.511 245.637L703.631 258.179C702.351 258.695 701.041 259.131 699.711 259.485C698.971 259.699 698.191 259.699 697.441 259.485C696.141 259.21 694.941 257.63 693.801 254.95L692.391 255.568L700.331 275.668L701.741 275.153C700.791 273.334 700.541 271.235 701.021 269.243C701.461 268.109 703.041 266.975 705.721 266.013L720.501 260.172L722.221 264.192L706.381 290.512L710.811 302.366L712.221 301.747C711.271 299.189 711.631 296.331 713.181 294.085V293.982Z" fill="black"/>
<path d="M772.998 338.134L756.818 343.116L756.468 341.192C764.478 337.206 768.048 331.537 767.018 324.288C766.498 320.222 762.788 317.346 758.718 317.864C758.578 317.882 758.428 317.905 758.288 317.931C753.518 319.787 750.178 324.288 748.468 331.675C747.318 339.729 741.858 346.515 734.238 349.37C725.208 350.161 719.538 345.693 717.058 335.866C716.538 332.923 716.538 329.911 717.058 326.968C717.278 325.836 717.358 324.682 717.298 323.532C717.058 322.208 715.778 321.336 714.458 321.585C714.418 321.592 714.378 321.599 714.348 321.608L714.008 319.89L729.948 314.392L730.288 316.145C721.838 321.367 718.268 327.552 719.568 334.595C720.228 339.485 724.728 342.915 729.608 342.258C729.758 342.238 729.908 342.215 730.048 342.188C734.208 342.188 737.948 337.31 741.288 326.933C743.968 317.691 748.158 312.639 754.168 311.952C762.348 310.818 767.668 314.564 770.008 323.257C770.428 325.872 770.338 328.54 769.768 331.125C769.538 332.255 769.448 333.409 769.488 334.561C769.788 336.007 771.158 336.972 772.618 336.76L772.998 338.134Z" fill="black"/>
<path d="M772.998 338.134L756.818 343.116L756.468 341.192C764.478 337.206 768.048 331.537 767.018 324.288C766.498 320.222 762.788 317.346 758.718 317.864C758.578 317.882 758.428 317.905 758.288 317.931C753.518 319.787 750.178 324.288 748.468 331.675C747.318 339.729 741.858 346.515 734.238 349.37C725.208 350.161 719.538 345.693 717.058 335.866C716.538 332.923 716.538 329.911 717.058 326.968C717.278 325.836 717.358 324.682 717.298 323.532C717.058 322.208 715.778 321.336 714.458 321.585C714.418 321.592 714.378 321.599 714.348 321.608L714.008 319.89L729.948 314.392L730.288 316.145C721.838 321.367 718.268 327.552 719.568 334.595C720.228 339.485 724.728 342.915 729.608 342.258C729.758 342.238 729.908 342.215 730.048 342.188C734.208 342.188 737.948 337.31 741.288 326.933C743.968 317.691 748.158 312.639 754.168 311.952C762.348 310.818 767.668 314.564 770.008 323.257C770.428 325.872 770.338 328.54 769.768 331.125C769.538 332.255 769.448 333.409 769.488 334.561C769.788 336.007 771.158 336.972 772.618 336.76L772.998 338.134Z" fill="black"/>
<path d="M723.18 370.295H724.66C724.93 373.731 725.45 375.62 726.51 376.479C727.58 377.338 729.19 377.785 732.15 377.545L767.26 375.724C770.22 375.724 772.07 375.105 772.76 374.04C773.83 372.143 774.26 369.948 773.96 367.787H775.44L776.68 391.049H775.2C775.3 388.843 774.66 386.664 773.38 384.864C771.74 383.689 769.69 383.242 767.71 383.627L732.59 385.482C729.71 385.482 727.82 386.17 727.03 387.303C725.96 389.2 725.55 391.402 725.89 393.557H724.42L723.18 370.295Z" fill="black"/>
<path d="M723.18 370.295H724.66C724.93 373.731 725.45 375.62 726.51 376.479C727.58 377.338 729.19 377.785 732.15 377.545L767.26 375.724C770.22 375.724 772.07 375.105 772.76 374.04C773.83 372.143 774.26 369.948 773.96 367.787H775.44L776.68 391.049H775.2C775.3 388.843 774.66 386.664 773.38 384.864C771.74 383.689 769.69 383.242 767.71 383.627L732.59 385.482C729.71 385.482 727.82 386.17 727.03 387.303C725.96 389.2 725.55 391.402 725.89 393.557H724.42L723.18 370.295Z" fill="black"/>
<path d="M723.183 442.416H721.703L723.903 419.567H725.383C724.933 421.718 725.303 423.958 726.413 425.855C727.003 426.412 727.723 426.824 728.503 427.058C729.193 427.229 730.603 427.435 732.593 427.676L772.043 431.524L772.383 427.332C774.323 422.223 771.753 416.508 766.643 414.567C765.643 414.189 764.583 413.973 763.523 413.931L763.693 412.11L777.023 413.863L772.833 457.741L759.323 456.985L759.533 455.164C764.893 456.023 769.933 452.377 770.793 447.02C770.973 445.938 770.953 444.835 770.773 443.756L771.183 439.495L730.813 435.613C728.893 435.101 726.843 435.386 725.143 436.403C723.773 438.107 723.033 440.231 723.043 442.416H723.183Z" fill="black"/>
<path d="M723.183 442.416H721.703L723.903 419.567H725.383C724.933 421.718 725.303 423.958 726.413 425.855C727.003 426.412 727.723 426.824 728.503 427.058C729.193 427.229 730.603 427.435 732.593 427.676L772.043 431.524L772.383 427.332C774.323 422.223 771.753 416.508 766.643 414.567C765.643 414.189 764.583 413.973 763.523 413.931L763.693 412.11L777.023 413.863L772.833 457.741L759.323 456.985L759.533 455.164C764.893 456.023 769.933 452.377 770.793 447.02C770.973 445.938 770.953 444.835 770.773 443.756L771.183 439.495L730.813 435.613C728.893 435.101 726.843 435.386 725.143 436.403C723.773 438.107 723.033 440.231 723.043 442.416H723.183Z" fill="black"/>
<path d="M753.142 533.607L751.772 533.195C752.972 530.034 751.082 525.773 746.202 520.276L732.462 504.092L717.752 499.728C714.762 498.766 712.872 498.697 711.812 499.488C710.742 500.278 709.642 502.099 708.582 505.397L707.102 504.951L713.972 481.964L715.452 482.41C714.452 484.565 714.292 487.015 715.002 489.283C715.432 489.96 716.042 490.506 716.752 490.864C718.072 491.479 719.442 491.973 720.842 492.341L734.002 496.258L751.422 490.761C755.552 489.582 759.572 488.063 763.452 486.224C765.122 485.413 766.372 483.926 766.882 482.136L768.362 482.582L762.112 503.576L760.702 503.13C761.182 501.704 761.412 500.202 761.392 498.697C761.332 497.887 760.712 497.227 759.912 497.117C758.692 496.88 757.432 496.973 756.272 497.392L736.132 503.473L750.082 519.347C750.712 520.185 751.552 520.838 752.522 521.238C754.242 521.787 755.652 520.275 756.612 516.804L758.092 517.148L753.142 533.607Z" fill="black"/>
<path d="M753.142 533.607L751.772 533.195C752.972 530.034 751.082 525.773 746.202 520.276L732.462 504.092L717.752 499.728C714.762 498.766 712.872 498.697 711.812 499.488C710.742 500.278 709.642 502.099 708.582 505.397L707.102 504.951L713.972 481.964L715.452 482.41C714.452 484.565 714.292 487.015 715.002 489.283C715.432 489.96 716.042 490.506 716.752 490.864C718.072 491.479 719.442 491.973 720.842 492.341L734.002 496.258L751.422 490.761C755.552 489.582 759.572 488.063 763.452 486.224C765.122 485.413 766.372 483.926 766.882 482.136L768.362 482.582L762.112 503.576L760.702 503.13C761.182 501.704 761.412 500.202 761.392 498.697C761.332 497.887 760.712 497.227 759.912 497.117C758.692 496.88 757.432 496.973 756.272 497.392L736.132 503.473L750.082 519.347C750.712 520.185 751.552 520.838 752.522 521.238C754.242 521.787 755.652 520.275 756.612 516.804L758.092 517.148L753.142 533.607Z" fill="black"/>
<path d="M702.293 391.701C702.163 558.693 566.688 693.964 399.702 693.833C232.715 693.706 97.4513 558.229 97.5783 391.238C97.7063 224.244 233.182 88.9743 400.169 89.1028C528.952 89.2017 643.543 170.868 685.663 292.573C696.643 324.47 702.263 357.967 702.293 391.701C702.293 393.969 705.723 394.313 705.723 392.045C705.673 222.814 568.444 85.6685 399.221 85.7224C229.993 85.7764 92.8513 223.01 92.9063 392.241C92.9613 561.473 230.189 698.616 399.413 698.561C516.6 698.527 623.503 631.653 674.803 526.288C695.113 484.449 705.683 438.554 705.723 392.045C705.723 389.777 702.293 389.434 702.293 391.701Z" fill="black"/>
<path d="M702.293 391.701C702.163 558.693 566.688 693.964 399.702 693.833C232.715 693.706 97.4513 558.229 97.5783 391.238C97.7063 224.244 233.182 88.9743 400.169 89.1028C528.952 89.2017 643.543 170.868 685.663 292.573C696.643 324.47 702.263 357.967 702.293 391.701C702.293 393.969 705.723 394.313 705.723 392.045C705.673 222.814 568.444 85.6685 399.221 85.7224C229.993 85.7764 92.8513 223.01 92.9063 392.241C92.9613 561.473 230.189 698.616 399.413 698.561C516.6 698.527 623.503 631.653 674.803 526.288C695.113 484.449 705.683 438.554 705.723 392.045C705.723 389.777 702.293 389.434 702.293 391.701Z" fill="black"/>
<path d="M598.971 330.3C598.181 330.3 596.532 327.449 596.016 329.957C594.986 337.447 593.474 336.313 593.405 339.268C593.233 343.803 593.233 380.499 593.405 381.358C595.26 388.747 594.539 389.709 594.195 391.358C593.508 397.989 592.203 392.663 591.515 399.295C590.966 405.136 593.508 402.524 593.405 405.033C593.405 408.468 591.687 406.269 591.515 408.709C590.966 415.582 591.515 428.294 590.21 435.441C589.316 447.982 585.743 490.073 585.159 500.725C585.159 502.133 585.159 511.616 583.407 512.578C581.654 513.54 582.101 523.54 581.139 524.158C580.177 524.777 581.483 526.873 581.311 527.835C578.968 536.971 575.913 545.907 572.171 554.567C567.567 565.833 561.338 576.367 553.686 585.834C548.57 591.936 542.224 596.887 535.064 600.368C532.281 601.605 530.357 601.33 528.192 602.464C525.512 603.941 526.199 607.102 523.76 608.408C518.747 609.899 513.435 610.074 508.333 608.923C503.11 607.686 497.201 606.14 482.117 593.668C471.329 584.803 465.144 577.828 461.502 568.413C460.368 565.355 461.055 555.082 460.025 553.88C457.138 550.444 459.063 536.699 457.413 535.325C455.764 533.95 455.386 522.853 455.661 516.393C456.664 501.357 458.499 486.387 461.158 471.553C462.189 462.242 466.896 433.998 464.354 417.093C464.319 412.554 462.931 408.125 460.368 404.38C456.348 398.023 457.413 394.381 455.317 394.381C451.882 394.553 455.489 407.884 453.737 407.884C446.745 398.769 441.086 388.705 436.936 377.991C435.022 374.366 434.699 370.113 436.042 366.241C437.451 363.286 439.478 363.183 441.643 362.152C443.807 361.121 450.335 357.342 451.572 352.291C452.363 349.061 448.136 351.604 447.106 352.463C443.828 355.521 440.248 358.238 436.42 360.571C430.407 361.43 434.496 338.203 435.973 332.602C439.884 320.769 446.226 309.883 454.596 300.648C459.489 296.875 465.618 295.073 471.775 295.597C475.52 296.387 473.459 301.266 473.871 302.469C474.833 304.805 479.369 304.736 479.884 299.686C480.399 294.635 481.98 291.68 477.788 283.4C476.07 279.963 461.674 281.646 453.737 288.279C439.227 301.371 429.892 319.23 427.418 338.615C424.281 348.003 418.165 356.112 409.998 361.705C396.918 370.429 385.483 381.396 376.224 394.106C366.912 406.476 327.262 444.203 327.262 444.203C327.262 444.203 292.904 479.662 273.869 500.209C272.632 501.412 267.684 497.083 262.977 489.902C259.133 482.999 256.284 475.58 254.525 467.877C252.601 457.157 252.257 437.571 256.896 425.786C260.768 416.028 265.187 406.496 270.124 397.233C276.089 386.496 283.472 376.617 292.079 367.855C292.079 367.855 312.454 342.36 317.951 337.722C320.906 335.214 327.606 329.888 325.682 324.391C326.345 322.072 328.623 320.603 331.008 320.955C332.829 320.955 333.344 318.344 334.65 316.316C336.161 314.595 337.828 313.019 339.632 311.608C343.404 307.484 347.483 303.648 351.829 300.132C356.622 296.494 362.033 293.758 367.806 292.058C374.849 289.687 393.506 284.465 393.506 284.465C393.506 284.465 406.665 280.306 415.461 277.867C418.042 277.507 420.598 277.002 423.123 276.355C424.257 275.599 424.944 273.229 426.559 272.095C428.05 270.922 428.311 268.762 427.136 267.27C426.841 266.893 426.47 266.582 426.044 266.357C423.261 265.738 424.979 269.586 419.584 269.415C414.19 269.243 412.438 271.236 412.369 272.851C412.197 276.286 404.707 275.634 402.955 277.73C401.202 279.825 397.114 278.932 396.427 279.722C395.739 280.513 390.414 282.163 390.139 280.169C388.936 279.447 394.331 276.321 399.107 275.015C401.821 274.5 416.733 270.995 416.526 263.608C418.739 261.25 421.23 259.173 423.948 257.423C430.82 253.06 440.234 250.552 444.563 247.115C448.892 243.679 456.932 237.529 455.524 235.192C455.008 234.333 453.771 234.505 450.026 237.632C448.112 238.605 445.986 239.077 443.842 239.006C440.818 239.281 437.76 243.301 434.118 245.019C418.073 252.27 398.557 262.199 397.182 263.333C394.571 265.154 389.933 266.563 389.417 265.601C386.978 260.791 376.533 269.037 376.533 267.319C376.533 266.907 394.915 254.881 397.148 254.778C399.381 254.675 389.727 261.409 391.651 261.306C396.038 260.615 400.096 258.546 403.23 255.396C406.308 253.324 408.699 250.381 410.101 246.943C410.892 244.607 416.973 244.057 417.866 241.721C418.485 240.518 435.286 230.485 450.542 218.219C456.097 213.729 461.196 208.699 465.762 203.203C467.687 201.829 463.151 195.919 467.961 191.281C471.298 187.984 474.857 184.919 478.613 182.107C481.636 180.182 484.969 178.67 487.58 176.884C492.631 173.448 493.043 173.448 493.593 172.864C494.143 172.28 493.318 168.157 493.834 166.61C494.108 165.889 494.28 165.374 493.834 164.755C492.834 163.824 491.267 163.88 490.336 164.88C490.322 164.895 490.308 164.911 490.295 164.927C489.401 166.061 490.535 165.889 489.058 168.157C488.027 169.806 485.416 169.978 484.351 171.008C483.285 172.039 477.994 176.265 477.032 176.952C474.868 178.499 471.122 181.488 466.347 185.577C461.571 189.666 457.551 193.136 455.111 194.992C452.672 196.847 450.129 199.252 447.346 201.348C446.109 202.207 443.91 203.238 443.601 202.997C443.292 202.757 444.804 200.627 447.037 199.252C450.473 197.32 453.689 195.015 456.623 192.38C459.616 188.621 462.347 184.66 464.8 180.526C466.872 177.908 469.301 175.595 472.016 173.654C472.016 173.654 480.227 165.477 482.736 162.075C484.935 158.509 486.721 154.705 488.061 150.737C488.377 149.189 488.494 147.606 488.405 146.029C488.748 145.616 490.226 145.685 490.776 146.029C491.325 146.372 490.569 147.231 490.398 150.118C489.817 153.717 488.656 157.198 486.962 160.426C486.962 160.426 488.267 161.457 492.013 157.918C493.352 156.462 494.504 154.846 495.448 153.107C496.41 151.802 497.372 151.63 497.647 150.153C497.647 149.294 496.41 148.331 495.826 147.025C495.208 145.01 495.208 142.856 495.826 140.84C496.342 139.432 499.022 140.291 499.262 137.405C499.262 136.82 507.199 134.381 506.855 129.571C506.409 128.368 504.863 129.571 503.42 128.884C502.732 128.609 503.42 127.578 502.389 127.303C500.362 126.788 499.228 131.323 498.128 131.22C496.376 131.048 496.445 127.99 498.128 126.788C500.826 123.037 502.945 118.902 504.416 114.521C505.722 111.291 504.416 111.531 504.244 111.806C501.784 114.524 499.132 117.062 496.307 119.401C495.861 119.744 497.166 116.343 490.569 110.398C488.714 109.195 488.371 106.24 487.408 106.24C476.276 107.202 478.441 104.316 474.009 104.591C466.175 105.175 468.958 101.43 464.148 102.907C463.289 103.079 463.804 104.591 463.117 105.519C462.43 106.446 459.887 105.965 459.681 105.965C458.444 106.137 458.272 107.374 457.413 108.233C456.554 109.092 455.214 115.999 456.451 116.583C464.629 118.407 471.634 123.648 475.692 130.979C476.348 132.758 476.616 134.655 476.482 136.546C476.139 140.566 476.139 137.336 475.177 139.981C472.641 149.395 469.044 158.49 464.457 167.091C462.224 170.647 459.53 173.893 456.451 176.746C452.534 181.007 448.343 184.925 442.948 189.975C434.737 197.562 425.91 204.457 416.561 210.591C407.937 215.986 391.891 222.274 385.019 226.534C378.148 230.795 335.44 228.355 335.44 228.355C335.44 228.355 319.944 227.152 313.588 229.145C303.83 232.1 290.842 242.202 289.537 241.171C288.231 240.14 281.29 248.044 279.229 248.765C277.009 249.463 274.67 249.697 272.357 249.452C266.894 250.483 270.296 257.286 271.395 258.592C274.202 260.492 277.659 261.186 280.981 260.516C283.132 259.321 285.201 257.978 287.166 256.496L295.274 250.93C299.191 248.215 304.861 248.765 305.582 246.84C306.304 244.916 331.454 245.431 333.069 245.706C345.507 247.699 324.686 247.974 328.362 255.706C330.011 259.141 335.509 254.95 337.33 255.912C340.113 257.389 328.19 260.859 326.61 261.031C315.203 262.68 304.586 272.954 292.045 272.266C288.609 272.266 281.737 276.012 277.305 278.898C268.165 284.98 255.625 286.629 255.35 287.42C253.979 288.582 252.185 289.118 250.402 288.897C248.753 288.657 249.715 287.179 252.567 286.836C255.418 286.492 251.983 283.4 254.25 279.963C249.955 277.695 246.554 283.4 232.879 289.172C219.204 294.944 201.097 302.915 183.506 302.503C175.74 302.503 174.435 303.225 174.023 302.091C173.748 301.472 173.061 300.167 174.985 299.892C176.909 299.617 176.015 299.892 176.703 296.456C177.939 290.959 174.091 292.092 172.167 291.234C170.243 290.375 169.041 288.347 166.532 291.234C164.024 294.12 151.002 292.47 150.143 294.669C148.666 298.346 150.143 307.382 150.762 309.925C151.896 315.929 155.995 320.949 161.653 323.257C168.226 325.366 175.273 325.51 181.925 323.669C190.824 321.23 192.989 318.962 204.155 315.938C219.531 311.398 234.48 305.511 248.821 298.346C260.201 293.651 272.038 290.151 284.142 287.901C286.341 288.092 288.465 288.811 290.327 289.997C291.186 290.581 291.117 291.543 291.186 292.677C291.255 293.81 291.014 294.154 287.99 294.841C274.419 298.37 261.036 302.59 247.894 307.485C238.837 311.73 230.007 316.445 221.438 321.608C217.514 324.819 213.786 328.261 210.271 331.915C205.736 336.519 201.647 341.398 201.578 344.01C201.578 345.762 200.616 346.793 200.616 348.305C200.616 349.817 202.265 351.26 202.265 352.635C202.54 361.087 203.124 359.506 205.323 360.056C207.522 360.606 204.19 365.107 208.175 365.347C210.889 365.553 209.24 363.354 211.405 363.286C216.043 363.286 216.971 364.213 220.476 362.049C223.98 359.884 230.062 351.741 233.532 347.686C234.941 346.105 243.565 339.062 243.565 339.062C243.565 339.062 249.199 335.385 251.57 333.564C254.518 331.282 257.738 329.378 261.156 327.895C264.592 326.006 261.946 325.284 266.379 322.501C267.856 321.642 274.728 322.501 275.278 321.47C276.927 318.859 280.397 321.47 292.698 320.165C295.034 320.165 293.11 324.597 290.842 330.163C289.516 332.358 288.365 334.656 287.406 337.035C286.547 339.99 285.585 343.013 283.661 343.906C281.737 344.8 278.885 345.659 277.408 347.995C274.694 352.36 276.721 355.761 275.484 357.479C269.128 367.065 265.898 371.429 259.541 380.499C252.721 390.516 246.798 401.119 241.847 412.179C238.662 420.134 235.91 428.257 233.601 436.506C231.931 443.88 231.075 451.415 231.058 458.978C230.8 467.609 232.068 476.216 234.803 484.404C237.349 492.777 241.888 500.405 248.031 506.634C251.041 509.16 253.814 511.953 256.312 514.984C256.312 517.596 254.662 519.245 250.471 523.334C242.053 531.889 226.179 546.079 214.497 558.552C209.254 564.404 204.647 570.794 200.754 577.621C197.318 582.57 190.137 601.124 199.551 605.934C200.925 606.621 205.289 606.278 206.869 608.545C208.45 610.813 214.6 609.404 214.6 609.404C218.448 611.844 257.892 609.851 266.345 608.889C289.289 606.023 312.018 601.625 334.375 595.729C346.215 593.283 357.838 589.906 369.146 585.628C382.889 579.889 401.202 567.417 402.92 557.04C407.112 531.614 390.826 527.422 382.649 524.124C374.471 520.825 341.178 516.737 347.637 521.856C345.026 526.735 362.171 526.907 357.945 531.271C358.666 532.679 323.586 523.883 318.673 526.666C322.933 529.346 348.29 534.225 368.39 545.907C378.697 551.921 360.041 569.341 342.896 578.309C330.815 584.243 317.986 588.507 304.758 590.988C285.345 594.664 268.509 596.726 262.256 597.344C251.536 598.203 216.593 599.268 218.174 596.726C219.032 595.42 216.353 594.836 215.562 592.397C214.549 589.363 214.37 586.109 215.047 582.982C216.83 577.058 219.919 571.612 224.083 567.039C231.92 557.834 240.331 549.135 249.268 540.994C259.37 533.057 273.56 521.478 277.408 523.231C278.61 523.746 280.019 519.795 293.35 521.032C295.103 521.032 297.611 520.516 297.954 519.142C298.298 517.768 300.222 517.218 299.947 516.084C298.745 511.032 296.202 516.324 295.687 505.775C295.687 504.813 298.642 507.768 298.401 504.126C298.058 498.904 312.763 481.999 318.157 475.539C329.942 461.452 344.923 444.89 349.802 440.354C375.124 416.853 386.359 408.572 395.258 394.381C397.87 390.19 403.779 393.591 405.291 390.946C406.803 388.3 416.08 390.946 420.065 392.354C424.525 395.007 428.507 398.384 431.85 402.353C435.482 407.235 438.568 412.502 441.059 418.056C445.687 427.868 449.143 438.19 451.366 448.808C451.882 451.659 453.977 458.188 452.603 461.177C451.514 463.204 450.827 465.42 450.576 467.705C450.576 469.423 450.919 484.61 451.194 487.462C451.806 492.413 451.806 497.423 451.194 502.374C450.335 505.157 450.232 512.681 449.545 515.774C448.48 520.31 448.48 531.545 447.277 534.5C446.59 536.253 449.201 561.61 450.404 562.469C452.191 564.727 452.95 567.63 452.5 570.475C451.641 576.659 467.583 596.107 470.367 599.406C473.15 602.704 481.499 613.424 485.416 610.469C488.027 608.477 481.98 603.598 481.98 603.598C481.98 603.598 475.108 596.348 475.967 596.107C476.414 596.107 483.629 606.415 491.394 608.099C494.83 608.82 495.586 612.565 498.712 614.73C504.21 618.579 519.774 621.603 526.199 618.923C535.394 616.215 544.162 612.225 552.243 607.068C558.558 601.904 564.001 595.753 568.358 588.858C569.766 586.693 569.32 586.693 573.305 584.7C576.83 581.574 578.885 577.109 578.974 572.399C578.974 570.75 584.128 569.341 584.747 567.176C585.259 564.28 586.004 561.432 586.98 558.655C589.42 554.979 588.32 547.934 589.179 546.801C593.439 541.131 588.904 536.94 591.79 533.057C592.921 531.858 593.838 530.477 594.505 528.968C594.498 527.216 594.673 525.464 595.02 523.746C595.707 521.135 594.23 517.905 594.298 514.331C594.367 510.757 597.185 504.023 594.676 502.924C593.096 502.236 592.477 494.231 593.611 491.585C594.371 489.015 594.786 486.359 594.848 483.683C595.982 474.267 596.394 445.886 596.394 440.801C596.394 439.942 595.982 423.038 597.356 422.866C599.796 422.625 598.421 405.445 599.796 401.528C601.72 395.687 600.483 389.434 600.311 380.912C600.459 376.06 600.287 371.205 599.796 366.378C598.559 362.495 598.057 358.417 598.318 354.352C598.353 350.425 598.968 346.521 600.139 342.773C602.373 337.894 600.792 330.232 598.971 330.3Z" fill="#FF0000"/>
<path d="M314.478 513.678L304.651 513.162L301.594 514.193C301.594 514.193 301.078 517.423 302.83 518.111C308.61 520.07 314.591 521.358 320.663 521.959C324.339 522.2 342.377 525.395 342.893 523.505C344.439 519.692 336.261 516.186 336.261 516.186L314.478 513.678Z" fill="#FF0000"/>
<path d="M610.31 268.212C610.31 266.803 612.474 267.147 612.302 264.123C612.131 261.1 610.138 260.688 610.035 259.245C609.863 257.217 606.908 254.091 604.915 252.098C602.922 250.104 609.176 249.142 608.901 247.458C608.557 244.847 603.06 247.046 602.476 244.435C601.892 241.824 597.769 244.16 596.188 245.397C592.769 248.692 590.485 252.987 589.66 257.664C589.66 266.803 583.922 280.753 579.352 287.179C575.972 292.1 572.027 296.608 567.602 300.613C558.187 308.963 550.869 314.013 550.422 315.25C550.147 315.937 549.873 317.931 551.453 318.206C556.95 319.065 572.068 312.364 586.293 308.55C590.485 307.142 591.172 301.679 598.318 303.293C599.796 303.671 599.796 310.955 597.7 312.364C596.394 313.223 597.459 318.102 597.253 318.893C597.253 323.154 601.101 321.951 602.579 320.646C603.266 320.13 603.266 315.594 604.503 314.804C605.74 314.013 605.018 294.498 605.362 291.715C606.255 285.461 615.292 277.97 611.031 271.614C610.554 270.543 610.31 269.384 610.31 268.212Z" fill="#FF0000"/>
<path d="M471.022 318.033C467.724 322.007 464.783 326.261 462.227 330.747C460.99 332.74 453.328 345.109 454.221 346.415C455.114 347.72 458.481 344.078 458.481 344.078C458.481 344.078 465.353 335.523 466.487 333.771C467.621 332.018 473.908 323.222 473.737 319.133C473.634 317.518 471.641 317.587 471.022 318.033Z" fill="#FF0000"/>
<path d="M346.64 673.863H328.258V672.832H332.243V646.856H328.498V645.722H335.679C337.102 645.729 338.524 645.647 339.94 645.482C340.895 645.307 341.857 645.18 342.826 645.104V672.832H346.571L346.64 673.863Z" fill="black"/>
<path d="M346.64 673.863H328.258V672.832H332.243V646.856H328.498V645.722H335.679C337.102 645.729 338.524 645.647 339.94 645.482C340.895 645.307 341.857 645.18 342.826 645.104V672.832H346.571L346.64 673.863Z" fill="black"/>
<path d="M377.734 646.238C378.937 646.238 379.659 647.373 379.659 649.675V656.031C379.659 658.883 378.868 660.395 377.288 660.395C376.257 660.395 375.742 659.776 375.742 658.642V651.049C375.742 647.922 376.257 646.342 377.734 646.342V646.238ZM374.951 673.417C373.027 673.417 372.065 673.073 371.997 672.729C371.928 672.386 372.237 672.386 372.752 672.111C374.158 671.53 375.109 670.194 375.192 668.675C375.192 666.132 373.646 664.827 370.863 664.758C368.08 664.689 366.224 666.132 366.156 668.675C366.396 672.111 369.351 674.001 374.951 674.344C379.074 674.712 383.184 673.482 386.427 670.908C389.526 668.022 391.165 663.899 390.894 659.673C390.344 650.602 385.74 645.93 377.15 645.104C368.973 645.276 364.884 648.335 364.781 654.347C364.781 659.57 368.217 662.353 373.921 662.525C376.037 662.511 378.102 661.879 379.865 660.704V664.896C379.865 671.08 378.284 673.863 374.986 673.417H374.951Z" fill="black"/>
<path d="M377.734 646.238C378.937 646.238 379.659 647.373 379.659 649.675V656.031C379.659 658.883 378.868 660.395 377.288 660.395C376.257 660.395 375.742 659.776 375.742 658.642V651.049C375.742 647.922 376.257 646.342 377.734 646.342V646.238ZM374.951 673.417C373.027 673.417 372.065 673.073 371.997 672.729C371.928 672.386 372.237 672.386 372.752 672.111C374.158 671.53 375.109 670.194 375.192 668.675C375.192 666.132 373.646 664.827 370.863 664.758C368.08 664.689 366.224 666.132 366.156 668.675C366.396 672.111 369.351 674.001 374.951 674.344C379.074 674.712 383.184 673.482 386.427 670.908C389.526 668.022 391.165 663.899 390.894 659.673C390.344 650.602 385.74 645.93 377.15 645.104C368.973 645.276 364.884 648.335 364.781 654.347C364.781 659.57 368.217 662.353 373.921 662.525C376.037 662.511 378.102 661.879 379.865 660.704V664.896C379.865 671.08 378.284 673.863 374.986 673.417H374.951Z" fill="black"/>
<path d="M417.625 664.724H407.317V664.277L417.625 652.183V664.724ZM417.625 666.27V672.832H414.189V673.863H431.368V672.832H427.933V666.27H431.575V664.724H427.933V645.104H421.988L405.359 664.449V666.27H417.625Z" fill="black"/>
<path d="M417.625 664.724H407.317V664.277L417.625 652.183V664.724ZM417.625 666.27V672.832H414.189V673.863H431.368V672.832H427.933V666.27H431.575V664.724H427.933V645.104H421.988L405.359 664.449V666.27H417.625Z" fill="black"/>
<path d="M468.309 673.863H449.961V672.832H454.119V646.856H450.305V645.722H457.452C458.898 645.729 460.345 645.647 461.781 645.482C462.736 645.307 463.698 645.18 464.667 645.104V672.832H468.309V673.863Z" fill="black"/>
<path d="M468.309 673.863H449.961V672.832H454.119V646.856H450.305V645.722H457.452C458.898 645.729 460.345 645.647 461.781 645.482C462.736 645.307 463.698 645.18 464.667 645.104V672.832H468.309V673.863Z" fill="black"/>
<path d="M105.477 641.634C109.593 642.366 113.647 643.41 117.606 644.76C121.041 646.41 121.694 647.372 119.701 647.475C114.561 647.701 109.545 649.138 105.065 651.667C103.759 652.183 103.037 652.355 102.866 652.183C102.319 650.396 101.972 648.55 101.835 646.684C101.684 645.523 101.457 644.376 101.148 643.249C101.663 641.943 103.141 641.393 105.477 641.668V641.634ZM126.401 652.252C127.26 652.08 127.776 653.317 127.982 655.997C127.944 656.818 128.023 657.639 128.222 658.436C129.291 660.254 129.806 662.343 129.7 664.449C129.872 666.029 129.528 666.991 128.566 667.163C126.525 666.277 124.718 664.94 123.275 663.246C122.876 662.93 122.436 662.662 121.969 662.456C120.828 661.748 119.966 660.669 119.53 659.398C120.45 656 123.041 653.303 126.401 652.252ZM160.004 610.023L160.554 610.538C162.024 611.383 163.447 612.314 164.814 613.321C169.12 615.802 173.25 618.569 177.184 621.603C180.619 624.729 184.055 627.787 187.491 630.673C189.261 631.986 190.717 633.676 191.752 635.621C193.353 638.947 194.298 642.551 194.535 646.238C194.707 648.162 194.535 649.228 193.744 649.228C189.164 647.485 182.107 648.633 172.579 652.664C171.892 653.042 170.655 653.626 169.144 654.519C166.635 655.997 165.055 656.581 164.54 656.34C163.942 655.674 163.413 654.949 162.959 654.176C162.217 652.351 161.117 650.695 159.729 649.296C159.338 648.481 158.702 647.808 157.908 647.372L157.633 647.097C156.946 646.307 155.984 646.65 154.953 648.162C154.163 648.849 154.266 649.639 155.125 650.602L155.641 651.118C159.729 654.554 161.653 656.512 161.31 656.856C160.966 657.199 160.451 657.989 158.767 659.295C158.08 659.982 157.221 659.982 156.087 659.295C153.96 658.058 151.995 656.557 150.246 654.828C149.387 653.97 148.253 654.141 146.81 655.344L146.536 655.619C146.017 656.526 146.237 657.677 147.051 658.333C149.49 660.944 152.274 663.556 155.331 666.339C157.256 667.988 158.218 668.847 157.943 669.019L157.152 671.458C156.19 674.894 155.16 676.612 154.129 676.543C153.751 676.543 153.236 675.925 152.823 674.619C152.579 673.836 152.222 673.097 151.758 672.42C148.144 667.613 144.12 663.13 139.733 659.02C134.218 653.839 128.339 649.062 122.141 644.726C123.618 640.809 124.58 638.988 124.924 639.332C126.848 640.637 130.775 643.774 136.709 648.746C137.544 649.313 138.327 649.96 139.045 650.671C140.076 651.358 140.866 651.427 141.21 650.671C142.344 649.606 142.516 648.918 141.828 648.574C140.403 646.822 138.544 645.472 136.434 644.657C135.967 644.451 135.527 644.183 135.128 643.867C134.441 642.733 134.854 640.809 136.537 638.198C137.637 637.074 138.358 636.731 138.702 637.167C140.179 638.198 141.588 639.332 142.962 640.603C144.017 641.328 145.007 642.146 145.917 643.042C147.772 644.52 149.147 644.52 150.281 643.042C151.14 642.527 150.796 641.393 149.25 639.607C147.91 638.507 146.371 637.679 144.715 637.167C144.302 637.033 143.917 636.824 143.581 636.549C143.581 628.474 147.566 619.369 155.606 609.473C156.74 608.339 158.218 608.614 159.936 610.091L160.004 610.023ZM135.678 666.579C136.142 666.091 136.706 665.703 137.327 665.445C138.977 664.243 139.836 663.693 140.007 663.899C140.729 664.311 140.97 665.617 140.798 667.988C140.939 668.61 141.031 669.242 141.073 669.878C142.378 675.306 142.035 678.33 139.836 679.051C139.08 679.051 137.671 677.918 135.575 675.616C133.05 673.547 132.682 669.823 134.754 667.297C134.998 666.998 135.276 666.723 135.575 666.476L135.678 666.579ZM146.982 688.638C147.913 685.845 148.504 682.948 148.735 680.013C148.563 678.776 148.735 677.918 149.078 677.574C149.422 677.23 150.109 677.574 150.659 678.708C152.205 681.731 154.095 684.859 155.881 687.917C157.668 690.975 157.805 691.937 157.427 692.28C154.472 698.018 151.002 699.874 146.81 697.847C145.951 696.885 146.02 693.861 146.982 688.638ZM160.726 632.254C161.413 631.567 161.516 631.12 160.966 630.948C160.331 630.989 159.698 631.082 159.077 631.223C156.534 631.464 154.782 631.223 153.923 630.33C153.064 629.436 153.236 627.993 153.923 625.485V624.867C152.363 626.987 151.081 629.295 150.109 631.738C149.844 632.618 150.291 633.553 151.14 633.903C151.707 634.418 152.329 634.865 152.995 635.243L154.026 636.342C154.713 637.064 155.606 637.064 156.465 636.102L160.726 632.254ZM168.388 621.637C166.797 620.18 164.893 619.108 162.822 618.51C160.451 617.617 158.011 618.923 155.4 622.496C158.376 624.231 161.533 625.636 164.814 626.688C165.739 626.932 166.725 626.739 167.494 626.172C168.113 625.657 168.628 625.107 169.178 624.592C170.484 623.733 170.484 622.771 169.178 621.912C168.934 621.719 168.628 621.62 168.319 621.637H168.388ZM175.088 644.451C173.49 642.293 171.215 640.733 168.628 640.019C166.907 639.284 164.955 639.284 163.234 640.019L161.928 641.324C161.138 642.046 161.241 642.905 162.1 643.764C164.643 646.753 166.567 647.784 168.044 647.2L175.088 644.451ZM179.108 630.433C178.214 629.471 177.527 629.299 176.909 629.814C176.565 629.814 175.947 630.261 174.985 631.12C173.961 631.914 172.896 632.645 171.789 633.319C171.573 633.511 171.449 633.786 171.446 634.075C171.683 634.281 171.992 634.381 172.305 634.35H172.82C174.95 634.054 177.105 634.693 178.73 636.102C179.967 637.064 180.07 639.057 178.936 642.287C180.929 641.355 182.708 640.022 184.158 638.37C185.017 637.408 184.674 636.171 183.093 634.521L179.108 630.433Z" fill="black"/>
<path d="M105.477 641.634C109.593 642.366 113.647 643.41 117.606 644.76C121.041 646.41 121.694 647.372 119.701 647.475C114.561 647.701 109.545 649.138 105.065 651.667C103.759 652.183 103.037 652.355 102.866 652.183C102.319 650.396 101.972 648.55 101.835 646.684C101.684 645.523 101.457 644.376 101.148 643.249C101.663 641.943 103.141 641.393 105.477 641.668V641.634ZM126.401 652.252C127.26 652.08 127.776 653.317 127.982 655.997C127.944 656.818 128.023 657.639 128.222 658.436C129.291 660.254 129.806 662.343 129.7 664.449C129.872 666.029 129.528 666.991 128.566 667.163C126.525 666.277 124.718 664.94 123.275 663.246C122.876 662.93 122.436 662.662 121.969 662.456C120.828 661.748 119.966 660.669 119.53 659.398C120.45 656 123.041 653.303 126.401 652.252ZM160.004 610.023L160.554 610.538C162.024 611.383 163.447 612.314 164.814 613.321C169.12 615.802 173.25 618.569 177.184 621.603C180.619 624.729 184.055 627.787 187.491 630.673C189.261 631.986 190.717 633.676 191.752 635.621C193.353 638.947 194.298 642.551 194.535 646.238C194.707 648.162 194.535 649.228 193.744 649.228C189.164 647.485 182.107 648.633 172.579 652.664C171.892 653.042 170.655 653.626 169.144 654.519C166.635 655.997 165.055 656.581 164.54 656.34C163.942 655.674 163.413 654.949 162.959 654.176C162.217 652.351 161.117 650.695 159.729 649.296C159.338 648.481 158.702 647.808 157.908 647.372L157.633 647.097C156.946 646.307 155.984 646.65 154.953 648.162C154.163 648.849 154.266 649.639 155.125 650.602L155.641 651.118C159.729 654.554 161.653 656.512 161.31 656.856C160.966 657.199 160.451 657.989 158.767 659.295C158.08 659.982 157.221 659.982 156.087 659.295C153.96 658.058 151.995 656.557 150.246 654.828C149.387 653.97 148.253 654.141 146.81 655.344L146.536 655.619C146.017 656.526 146.237 657.677 147.051 658.333C149.49 660.944 152.274 663.556 155.331 666.339C157.256 667.988 158.218 668.847 157.943 669.019L157.152 671.458C156.19 674.894 155.16 676.612 154.129 676.543C153.751 676.543 153.236 675.925 152.823 674.619C152.579 673.836 152.222 673.097 151.758 672.42C148.144 667.613 144.12 663.13 139.733 659.02C134.218 653.839 128.339 649.062 122.141 644.726C123.618 640.809 124.58 638.988 124.924 639.332C126.848 640.637 130.775 643.774 136.709 648.746C137.544 649.313 138.327 649.96 139.045 650.671C140.076 651.358 140.866 651.427 141.21 650.671C142.344 649.606 142.516 648.918 141.828 648.574C140.403 646.822 138.544 645.472 136.434 644.657C135.967 644.451 135.527 644.183 135.128 643.867C134.441 642.733 134.854 640.809 136.537 638.198C137.637 637.074 138.358 636.731 138.702 637.167C140.179 638.198 141.588 639.332 142.962 640.603C144.017 641.328 145.007 642.146 145.917 643.042C147.772 644.52 149.147 644.52 150.281 643.042C151.14 642.527 150.796 641.393 149.25 639.607C147.91 638.507 146.371 637.679 144.715 637.167C144.302 637.033 143.917 636.824 143.581 636.549C143.581 628.474 147.566 619.369 155.606 609.473C156.74 608.339 158.218 608.614 159.936 610.091L160.004 610.023ZM135.678 666.579C136.142 666.091 136.706 665.703 137.327 665.445C138.977 664.243 139.836 663.693 140.007 663.899C140.729 664.311 140.97 665.617 140.798 667.988C140.939 668.61 141.031 669.242 141.073 669.878C142.378 675.306 142.035 678.33 139.836 679.051C139.08 679.051 137.671 677.918 135.575 675.616C133.05 673.547 132.682 669.823 134.754 667.297C134.998 666.998 135.276 666.723 135.575 666.476L135.678 666.579ZM146.982 688.638C147.913 685.845 148.504 682.948 148.735 680.013C148.563 678.776 148.735 677.918 149.078 677.574C149.422 677.23 150.109 677.574 150.659 678.708C152.205 681.731 154.095 684.859 155.881 687.917C157.668 690.975 157.805 691.937 157.427 692.28C154.472 698.018 151.002 699.874 146.81 697.847C145.951 696.885 146.02 693.861 146.982 688.638ZM160.726 632.254C161.413 631.567 161.516 631.12 160.966 630.948C160.331 630.989 159.698 631.082 159.077 631.223C156.534 631.464 154.782 631.223 153.923 630.33C153.064 629.436 153.236 627.993 153.923 625.485V624.867C152.363 626.987 151.081 629.295 150.109 631.738C149.844 632.618 150.291 633.553 151.14 633.903C151.707 634.418 152.329 634.865 152.995 635.243L154.026 636.342C154.713 637.064 155.606 637.064 156.465 636.102L160.726 632.254ZM168.388 621.637C166.797 620.18 164.893 619.108 162.822 618.51C160.451 617.617 158.011 618.923 155.4 622.496C158.376 624.231 161.533 625.636 164.814 626.688C165.739 626.932 166.725 626.739 167.494 626.172C168.113 625.657 168.628 625.107 169.178 624.592C170.484 623.733 170.484 622.771 169.178 621.912C168.934 621.719 168.628 621.62 168.319 621.637H168.388ZM175.088 644.451C173.49 642.293 171.215 640.733 168.628 640.019C166.907 639.284 164.955 639.284 163.234 640.019L161.928 641.324C161.138 642.046 161.241 642.905 162.1 643.764C164.643 646.753 166.567 647.784 168.044 647.2L175.088 644.451ZM179.108 630.433C178.214 629.471 177.527 629.299 176.909 629.814C176.565 629.814 175.947 630.261 174.985 631.12C173.961 631.914 172.896 632.645 171.789 633.319C171.573 633.511 171.449 633.786 171.446 634.075C171.683 634.281 171.992 634.381 172.305 634.35H172.82C174.95 634.054 177.105 634.693 178.73 636.102C179.967 637.064 180.07 639.057 178.936 642.287C180.929 641.355 182.708 640.022 184.158 638.37C185.017 637.408 184.674 636.171 183.093 634.521L179.108 630.433Z" fill="black"/>
<path d="M250.918 706.78C251.777 706.78 253.358 706.952 255.626 707.33C257.457 707.68 259.329 707.797 261.192 707.673C263.078 708.518 265.294 707.979 266.586 706.368C271.857 700.52 275.547 693.425 277.306 685.751C277.718 684.514 279.471 684.617 282.425 685.992C285.38 687.366 286.548 688.535 285.655 689.429C283.092 691.923 281.13 694.964 279.917 698.328C279.732 699.616 279.158 700.815 278.268 701.763C277.649 702.897 276.069 705.199 273.733 708.635C273.561 709.151 273.733 709.391 273.733 709.494C277.409 710.01 280.604 710.525 283.765 711.075C284.384 711.075 285.174 711.075 286.205 711.075C288.036 711.432 289.905 711.583 291.771 711.521C292.733 711.865 293.077 713.789 292.905 717.19C292.733 720.593 292.114 721.967 291.599 721.967C291.084 721.967 290.912 721.692 290.122 721.452C289.355 721.411 288.596 721.297 287.854 721.108C281.975 718.517 275.468 717.692 269.129 718.737C268.108 719.482 267.222 720.4 266.517 721.452C267.62 722.15 268.864 722.593 270.159 722.758L271.568 723.273C273.561 723.72 273.904 724.854 272.427 726.4C270.575 728.2 268.915 730.193 267.479 732.344L267.204 733.134C267.249 733.77 267.424 734.392 267.72 734.955C272.351 734.653 276.791 732.979 280.467 730.145C282.422 731.876 283.738 734.209 284.212 736.776C284.212 737.807 283.25 738.356 281.601 738.356C279.903 737.8 278.089 737.704 276.344 738.082H275.932C273.152 739.075 270.29 739.81 267.376 740.281C263.734 740.624 261.638 741.483 261.123 742.961C258.419 748.355 260.601 754.922 265.995 757.626C266.225 757.739 266.455 757.846 266.689 757.942C275.657 760.897 281.773 762.031 284.968 761.378C290.232 757.925 293.932 752.547 295.275 746.396C295.688 745.194 296.031 745.091 296.306 745.95C297.316 749.619 297.038 753.527 295.516 757.014L294.313 761.481L293.077 765.913C292.101 767.817 291.74 769.978 292.046 772.098C289.503 772.544 284.899 771.239 278.302 768.353C274.344 766.597 270.269 765.116 266.105 763.92C264.94 763.745 263.793 763.481 262.669 763.13C257.893 760.519 255.248 755.537 254.732 747.977C255.261 746.194 255.378 744.314 255.076 742.48C249.51 739.868 247.002 737.326 247.345 734.715C250.575 735.598 253.945 735.865 257.275 735.505C260.23 735.505 262.841 732.069 265.212 724.888C265.16 724.005 264.652 723.211 263.872 722.792C260.285 724.706 256.564 726.358 252.739 727.74C249.815 729.265 247.091 731.145 244.631 733.34C243.256 734.715 242.81 735.951 243.325 736.776C243.84 737.601 243.325 738.597 241.779 738.666L231.918 741.208C231.293 741.308 230.681 741.483 230.097 741.724C227.335 742.033 224.534 741.707 221.92 740.762C220.209 740.15 218.59 739.308 217.109 738.253C218.226 737.882 219.377 737.618 220.545 737.463C226.201 736.133 231.736 734.354 237.106 732.138C244.782 728.135 251.685 722.795 257.481 716.366C254.004 714.978 250.214 714.562 246.52 715.163C245.558 715.679 245.284 714.476 245.799 711.727C246.201 709.821 246.496 707.893 246.692 705.955C246.692 705.337 246.692 704.993 247.036 704.821C247.379 704.65 247.62 704.821 247.723 705.096C248.565 705.711 249.568 706.069 250.609 706.127L250.918 706.78ZM286.961 701.66C287.534 699.42 288.826 697.431 290.637 695.991C293.42 695.132 294.794 695.716 294.898 697.984C294.451 698.946 295.241 700.183 297.165 701.66C299.457 704.114 300.484 707.488 299.948 710.8C298.997 711.003 298.014 711.003 297.062 710.8C294.849 709.223 292.369 708.058 289.744 707.364C287.507 706.368 286.325 703.89 286.961 701.523V701.66Z" fill="black"/>
<path d="M250.918 706.78C251.777 706.78 253.358 706.952 255.626 707.33C257.457 707.68 259.329 707.797 261.192 707.673C263.078 708.518 265.294 707.979 266.586 706.368C271.857 700.52 275.547 693.425 277.306 685.751C277.718 684.514 279.471 684.617 282.425 685.992C285.38 687.366 286.548 688.535 285.655 689.429C283.092 691.923 281.13 694.964 279.917 698.328C279.732 699.616 279.158 700.815 278.268 701.763C277.649 702.897 276.069 705.199 273.733 708.635C273.561 709.151 273.733 709.391 273.733 709.494C277.409 710.01 280.604 710.525 283.765 711.075C284.384 711.075 285.174 711.075 286.205 711.075C288.036 711.432 289.905 711.583 291.771 711.521C292.733 711.865 293.077 713.789 292.905 717.19C292.733 720.593 292.114 721.967 291.599 721.967C291.084 721.967 290.912 721.692 290.122 721.452C289.355 721.411 288.596 721.297 287.854 721.108C281.975 718.517 275.468 717.692 269.129 718.737C268.108 719.482 267.222 720.4 266.517 721.452C267.62 722.15 268.864 722.593 270.159 722.758L271.568 723.273C273.561 723.72 273.904 724.854 272.427 726.4C270.575 728.2 268.915 730.193 267.479 732.344L267.204 733.134C267.249 733.77 267.424 734.392 267.72 734.955C272.351 734.653 276.791 732.979 280.467 730.145C282.422 731.876 283.738 734.209 284.212 736.776C284.212 737.807 283.25 738.356 281.601 738.356C279.903 737.8 278.089 737.704 276.344 738.082H275.932C273.152 739.075 270.29 739.81 267.376 740.281C263.734 740.624 261.638 741.483 261.123 742.961C258.419 748.355 260.601 754.922 265.995 757.626C266.225 757.739 266.455 757.846 266.689 757.942C275.657 760.897 281.773 762.031 284.968 761.378C290.232 757.925 293.932 752.547 295.275 746.396C295.688 745.194 296.031 745.091 296.306 745.95C297.316 749.619 297.038 753.527 295.516 757.014L294.313 761.481L293.077 765.913C292.101 767.817 291.74 769.978 292.046 772.098C289.503 772.544 284.899 771.239 278.302 768.353C274.344 766.597 270.269 765.116 266.105 763.92C264.94 763.745 263.793 763.481 262.669 763.13C257.893 760.519 255.248 755.537 254.732 747.977C255.261 746.194 255.378 744.314 255.076 742.48C249.51 739.868 247.002 737.326 247.345 734.715C250.575 735.598 253.945 735.865 257.275 735.505C260.23 735.505 262.841 732.069 265.212 724.888C265.16 724.005 264.652 723.211 263.872 722.792C260.285 724.706 256.564 726.358 252.739 727.74C249.815 729.265 247.091 731.145 244.631 733.34C243.256 734.715 242.81 735.951 243.325 736.776C243.84 737.601 243.325 738.597 241.779 738.666L231.918 741.208C231.293 741.308 230.681 741.483 230.097 741.724C227.335 742.033 224.534 741.707 221.92 740.762C220.209 740.15 218.59 739.308 217.109 738.253C218.226 737.882 219.377 737.618 220.545 737.463C226.201 736.133 231.736 734.354 237.106 732.138C244.782 728.135 251.685 722.795 257.481 716.366C254.004 714.978 250.214 714.562 246.52 715.163C245.558 715.679 245.284 714.476 245.799 711.727C246.201 709.821 246.496 707.893 246.692 705.955C246.692 705.337 246.692 704.993 247.036 704.821C247.379 704.65 247.62 704.821 247.723 705.096C248.565 705.711 249.568 706.069 250.609 706.127L250.918 706.78ZM286.961 701.66C287.534 699.42 288.826 697.431 290.637 695.991C293.42 695.132 294.794 695.716 294.898 697.984C294.451 698.946 295.241 700.183 297.165 701.66C299.457 704.114 300.484 707.488 299.948 710.8C298.997 711.003 298.014 711.003 297.062 710.8C294.849 709.223 292.369 708.058 289.744 707.364C287.507 706.368 286.325 703.89 286.961 701.523V701.66Z" fill="black"/>
<path d="M381.309 722.826C382.271 719.39 383.405 717.672 384.745 717.5C385.501 717.5 387.253 719.322 390.139 723.17C390.493 723.593 390.871 723.995 391.273 724.373C392.077 725.448 392.949 726.468 393.884 727.43C395.179 728.75 396.238 730.286 397.011 731.966C396.495 733.787 394.571 734.577 391.273 734.302C385.878 733.271 382.717 731.966 381.687 730.488C380.914 728.008 380.793 725.365 381.343 722.826H381.309ZM424.085 730.042C432.503 727.534 436.695 726.606 436.695 727.43C436.997 728.554 436.997 729.743 436.695 730.866V732.79C436.695 733.031 435.905 733.649 434.427 734.715C431.847 736.109 429.524 737.934 427.556 740.109C425.46 742.617 424.326 749.523 424.12 760.725C424.264 761.879 425.295 762.714 426.456 762.615C431.582 762.663 436.698 762.144 441.711 761.069C442.206 760.873 442.728 760.756 443.257 760.725C445.491 763.903 447.281 767.373 448.583 771.033C448.855 771.984 448.59 773.008 447.896 773.713L447.106 773.369C442.467 771.033 434.737 769.933 423.742 770.311C414.784 770.352 405.906 771.991 397.526 775.156C396.952 775.541 396.313 775.808 395.636 775.946C394.801 774.781 394.155 773.496 393.712 772.132C393.266 770.895 393.094 770.105 393.369 769.864C393.644 769.624 394.228 769.521 395.293 769.521C399.622 768.445 405.109 766.782 411.751 764.539C412.706 764.092 413.403 763.23 413.64 762.202C414.42 758.035 414.802 753.798 414.774 749.557C414.774 745.537 413.915 743.476 412.094 743.476C410.885 743.617 409.713 744.002 408.658 744.61C407.902 744.957 407.105 745.211 406.287 745.366C405.085 744.61 404.295 740.487 404.054 733.168L409.002 732.412C413.365 732.138 416.32 731.863 417.798 731.622L423.914 730.042H424.085ZM378.938 742.686C383.576 743.476 385.81 744.61 385.81 746.122C385.229 747.376 384.466 748.534 383.542 749.557C381.687 752.169 380.484 754.094 379.694 755.296C377.615 759.591 376.443 764.271 376.258 769.04C376.258 772.854 377.735 774.778 380.003 774.778C382.271 774.778 384.023 773.06 386.531 768.696C389.204 764.206 391.403 759.45 393.094 754.506C393.685 752.5 394.564 750.589 395.705 748.836C395.684 756.135 394.42 763.374 391.96 770.242C387.596 780.55 384.538 785.43 382.717 785.154C377.839 783.343 375.055 778.375 374.368 770.242C374.265 761.811 374.633 753.379 375.468 744.988C375.691 743.448 377.12 742.38 378.66 742.607C378.742 742.617 378.825 742.631 378.904 742.651L378.938 742.686Z" fill="black"/>
<path d="M381.309 722.826C382.271 719.39 383.405 717.672 384.745 717.5C385.501 717.5 387.253 719.322 390.139 723.17C390.493 723.593 390.871 723.995 391.273 724.373C392.077 725.448 392.949 726.468 393.884 727.43C395.179 728.75 396.238 730.286 397.011 731.966C396.495 733.787 394.571 734.577 391.273 734.302C385.878 733.271 382.717 731.966 381.687 730.488C380.914 728.008 380.793 725.365 381.343 722.826H381.309ZM424.085 730.042C432.503 727.534 436.695 726.606 436.695 727.43C436.997 728.554 436.997 729.743 436.695 730.866V732.79C436.695 733.031 435.905 733.649 434.427 734.715C431.847 736.109 429.524 737.934 427.556 740.109C425.46 742.617 424.326 749.523 424.12 760.725C424.264 761.879 425.295 762.714 426.456 762.615C431.582 762.663 436.698 762.144 441.711 761.069C442.206 760.873 442.728 760.756 443.257 760.725C445.491 763.903 447.281 767.373 448.583 771.033C448.855 771.984 448.59 773.008 447.896 773.713L447.106 773.369C442.467 771.033 434.737 769.933 423.742 770.311C414.784 770.352 405.906 771.991 397.526 775.156C396.952 775.541 396.313 775.808 395.636 775.946C394.801 774.781 394.155 773.496 393.712 772.132C393.266 770.895 393.094 770.105 393.369 769.864C393.644 769.624 394.228 769.521 395.293 769.521C399.622 768.445 405.109 766.782 411.751 764.539C412.706 764.092 413.403 763.23 413.64 762.202C414.42 758.035 414.802 753.798 414.774 749.557C414.774 745.537 413.915 743.476 412.094 743.476C410.885 743.617 409.713 744.002 408.658 744.61C407.902 744.957 407.105 745.211 406.287 745.366C405.085 744.61 404.295 740.487 404.054 733.168L409.002 732.412C413.365 732.138 416.32 731.863 417.798 731.622L423.914 730.042H424.085ZM378.938 742.686C383.576 743.476 385.81 744.61 385.81 746.122C385.229 747.376 384.466 748.534 383.542 749.557C381.687 752.169 380.484 754.094 379.694 755.296C377.615 759.591 376.443 764.271 376.258 769.04C376.258 772.854 377.735 774.778 380.003 774.778C382.271 774.778 384.023 773.06 386.531 768.696C389.204 764.206 391.403 759.45 393.094 754.506C393.685 752.5 394.564 750.589 395.705 748.836C395.684 756.135 394.42 763.374 391.96 770.242C387.596 780.55 384.538 785.43 382.717 785.154C377.839 783.343 375.055 778.375 374.368 770.242C374.265 761.811 374.633 753.379 375.468 744.988C375.691 743.448 377.12 742.38 378.66 742.607C378.742 742.617 378.825 742.631 378.904 742.651L378.938 742.686Z" fill="black"/>
<path d="M525.27 698.259C523.538 693.857 521.449 689.604 519.016 685.545C518.693 684.985 518.274 684.487 517.78 684.068C517.587 683.724 517.412 683.367 517.264 683.003C516.921 681.25 518.329 679.773 521.456 678.639C524.583 677.505 526.953 677.711 527.812 679.257L527.64 680.563C527.469 682.384 527.366 683.621 527.366 684.24C529.784 692.342 532.935 700.21 536.78 707.742C540.47 704.66 543.83 701.203 546.813 697.434C547.043 696.891 547.397 696.41 547.843 696.026C548.462 695.682 549.596 696.472 551.073 698.225C552.314 699.41 553.131 700.966 553.41 702.657C553.41 703.791 549.974 709.529 543.308 719.63C542.617 720.65 542.528 721.959 543.068 723.067C548.273 723.727 553.403 724.878 558.392 726.503C564.717 728.801 571.355 730.124 578.079 730.42C580.56 730.306 583.027 730.018 585.466 729.561C589.727 729.045 593.128 728.599 595.499 728.152C597.87 727.705 599.931 728.427 600.275 729.114C600.618 729.801 599.931 731.382 597.664 733.134C594.606 736.57 587.356 738.975 575.708 740.006C575.437 740.136 575.121 740.136 574.849 740.006C573.52 740.38 572.139 740.521 570.761 740.418C570.177 739.954 569.685 739.384 569.318 738.734C568.514 737.614 567.438 736.714 566.191 736.123C560.01 733.502 553.31 732.327 546.607 732.687C545.431 732.643 544.263 732.842 543.171 733.271C542.724 733.271 542.38 734.165 542.037 735.196C541.326 740.391 540.095 745.503 538.36 750.451C536.986 754.368 535.921 757.324 535.131 759.935C534.811 760.488 534.56 761.075 534.375 761.687C531.025 763.687 527.331 765.037 523.483 765.673C520.047 766.807 518.054 767.081 517.367 766.291C516.68 765.501 518.501 764.127 521.559 762.855C531.214 757.083 535.68 747.152 534.787 732.962L534.959 732.447C534.959 730.179 534.375 729.011 533.31 728.53C533.31 728.255 532.691 728.53 531.832 728.874C529.077 730.114 526.806 732.227 525.373 734.886C525.486 735.226 525.39 735.601 525.132 735.848C524.17 736.364 522.006 735.058 518.261 732.103C514.515 729.148 513.21 727.396 513.553 726.365C513.553 725.987 514.619 725.403 516.439 724.441C520.185 722.173 523.998 719.733 528.122 717.019C528.393 716.751 528.647 716.466 528.877 716.16C530.286 715.473 530.905 714.682 530.733 713.892C529.238 708.676 527.428 703.56 525.304 698.568L525.27 698.259Z" fill="black"/>
<path d="M525.27 698.259C523.538 693.857 521.449 689.604 519.016 685.545C518.693 684.985 518.274 684.487 517.78 684.068C517.587 683.724 517.412 683.367 517.264 683.003C516.921 681.25 518.329 679.773 521.456 678.639C524.583 677.505 526.953 677.711 527.812 679.257L527.64 680.563C527.469 682.384 527.366 683.621 527.366 684.24C529.784 692.342 532.935 700.21 536.78 707.742C540.47 704.66 543.83 701.203 546.813 697.434C547.043 696.891 547.397 696.41 547.843 696.026C548.462 695.682 549.596 696.472 551.073 698.225C552.314 699.41 553.131 700.966 553.41 702.657C553.41 703.791 549.974 709.529 543.308 719.63C542.617 720.65 542.528 721.959 543.068 723.067C548.273 723.727 553.403 724.878 558.392 726.503C564.717 728.801 571.355 730.124 578.079 730.42C580.56 730.306 583.027 730.018 585.466 729.561C589.727 729.045 593.128 728.599 595.499 728.152C597.87 727.705 599.931 728.427 600.275 729.114C600.618 729.801 599.931 731.382 597.664 733.134C594.606 736.57 587.356 738.975 575.708 740.006C575.437 740.136 575.121 740.136 574.849 740.006C573.52 740.38 572.139 740.521 570.761 740.418C570.177 739.954 569.685 739.384 569.318 738.734C568.514 737.614 567.438 736.714 566.191 736.123C560.01 733.502 553.31 732.327 546.607 732.687C545.431 732.643 544.263 732.842 543.171 733.271C542.724 733.271 542.38 734.165 542.037 735.196C541.326 740.391 540.095 745.503 538.36 750.451C536.986 754.368 535.921 757.324 535.131 759.935C534.811 760.488 534.56 761.075 534.375 761.687C531.025 763.687 527.331 765.037 523.483 765.673C520.047 766.807 518.054 767.081 517.367 766.291C516.68 765.501 518.501 764.127 521.559 762.855C531.214 757.083 535.68 747.152 534.787 732.962L534.959 732.447C534.959 730.179 534.375 729.011 533.31 728.53C533.31 728.255 532.691 728.53 531.832 728.874C529.077 730.114 526.806 732.227 525.373 734.886C525.486 735.226 525.39 735.601 525.132 735.848C524.17 736.364 522.006 735.058 518.261 732.103C514.515 729.148 513.21 727.396 513.553 726.365C513.553 725.987 514.619 725.403 516.439 724.441C520.185 722.173 523.998 719.733 528.122 717.019C528.393 716.751 528.647 716.466 528.877 716.16C530.286 715.473 530.905 714.682 530.733 713.892C529.238 708.676 527.428 703.56 525.304 698.568L525.27 698.259Z" fill="black"/>
<path d="M640.001 625.348C641.211 623.063 642.281 620.713 643.231 618.304C643.091 615.109 642.651 611.934 641.921 608.82C640.721 603.742 639.881 598.588 639.411 593.393C641.001 592.572 642.751 592.125 644.531 592.087C647.971 592.946 649.581 593.496 649.411 593.668C648.021 599.595 647.581 605.707 648.111 611.776C648.091 612.065 648.191 612.35 648.381 612.566C648.811 612.525 649.201 612.343 649.511 612.051C655.081 606.46 659.281 603.666 662.121 603.666C663.661 603.464 665.211 603.385 666.761 603.426H669.961C672.471 602.649 675.171 602.835 677.551 603.941C680.261 604.8 680.991 605.762 679.991 606.896C678.761 608.16 677.611 609.504 676.551 610.917C675.441 613.13 673.771 615.013 671.711 616.38C671.211 616.772 670.681 617.126 670.131 617.445C668.651 618.476 667.961 619.266 667.961 619.61C667.611 623.111 666.591 626.516 664.981 629.643C663.331 631.979 663.091 633.078 664.121 633.078C665.261 633.436 666.231 634.209 666.831 635.243C667.071 635.449 667.351 635.243 667.691 635.002C670.641 631.165 673.871 627.55 677.341 624.179C678.841 622.767 680.211 621.228 681.431 619.575C685.071 620.658 688.471 622.403 691.471 624.729C691.811 625.76 690.781 626.825 688.241 627.925C685.641 628.832 683.291 630.326 681.361 632.288C678.541 634.704 675.991 637.421 673.771 640.397C673.431 641.084 674.491 642.939 677.211 645.792C679.311 647.634 681.201 649.709 682.841 651.977C683.601 653.681 684.511 655.313 685.561 656.856C684.871 655.825 685.111 656.065 686.351 657.749C689.031 661.494 690.261 663.934 689.781 664.964L689.511 665.239C688.081 665.93 686.791 666.871 685.691 668.022C680.101 671.039 673.901 672.788 667.551 673.142C667.161 673.052 666.801 672.85 666.521 672.558C666.521 672.18 666.761 671.939 667.311 671.767C667.791 671.31 668.351 670.95 668.961 670.702C671.721 669.427 674.341 667.885 676.791 666.098C680.231 662.662 677.651 656.684 669.131 648.232C668.271 647.373 667.721 647.373 667.551 648.232C667.031 648.823 666.571 649.465 666.181 650.156C663.931 652.612 661.861 655.23 659.991 657.989C657.401 661.415 655.391 665.246 654.051 669.328C653.711 670.805 653.021 671.424 652.161 671.218C650.631 670.95 649.151 670.427 647.801 669.671C648.041 669.671 647.801 669.671 647.011 669.328C646.221 668.984 646.731 668.366 647.281 667.472C647.831 666.579 649.451 664.037 651.611 660.601C653.471 657.715 654.841 655.378 655.901 653.557C657.911 649.736 660.261 646.112 662.951 642.733C662.171 641.228 660.621 640.287 658.931 640.294C657.281 640.122 656.761 639.435 657.281 638.129C658.811 635.085 659.731 631.769 659.991 628.371C659.651 626.275 658.521 625.691 656.561 626.791C656.001 627.787 655.651 628.887 655.531 630.02C656.211 631.498 655.531 633.456 653.601 636.308C651.761 638.71 650.721 641.63 650.651 644.658C650.821 646.582 650.651 647.888 650.131 648.403C648.901 649.709 646.701 649.537 643.261 647.888C641.951 647.373 641.611 646.651 642.131 645.723C646.041 637.95 650.461 630.446 655.351 623.252C658.201 620.507 661.951 618.895 665.901 618.716C666.151 618.4 666.411 618.101 666.691 617.823C667.831 613.116 667.721 610.16 666.421 608.958C663.911 606.415 660.681 607.308 656.661 611.639C654.651 613.827 652.841 616.198 651.271 618.716C646.221 627.684 642.301 634.384 639.411 638.748C637.201 640.452 635.671 642.888 635.081 645.62C634.741 646.754 633.781 646.823 632.091 645.861C631.061 644.83 630.621 644.212 630.791 644.04C632.551 642.025 633.911 639.692 634.811 637.167C636.341 633.099 638.141 629.137 640.201 625.313L640.001 625.348ZM630.791 618.476C626.671 617.961 624.841 616.827 625.361 615.246C625.811 613.944 626.571 612.769 627.561 611.81C627.721 610.969 627.981 610.146 628.351 609.37C628.911 607.892 629.741 606.532 630.791 605.35C632.271 603.872 632.951 603.357 632.951 603.701C633.171 607.102 634.091 610.421 635.631 613.46C636.971 615.109 637.141 616.174 636.251 616.689C634.621 617.741 632.731 618.314 630.791 618.339V618.476ZM626.491 634.144C624.841 634.693 622.511 633.113 619.451 629.265C618.757 628.351 618.565 627.155 618.936 626.069C619.623 625.004 620.413 624.489 621.371 624.661C624.691 625.09 628.041 625.183 631.371 624.935C634.261 625.279 635.121 626.413 634.091 628.371C631.761 630.587 629.211 632.57 626.491 634.281V634.144ZM637.901 660.12C633.231 663.349 630.001 664.483 628.141 663.349C626.501 659.085 626.891 654.303 629.211 650.362C629.721 649.503 630.241 649.056 630.581 649.056C630.931 649.056 631.301 649.4 631.651 650.087C633.001 653.09 635.291 655.571 638.181 657.165C639.411 658.024 639.311 658.986 637.901 660.12Z" fill="black"/>
<path d="M640.001 625.348C641.211 623.063 642.281 620.713 643.231 618.304C643.091 615.109 642.651 611.934 641.921 608.82C640.721 603.742 639.881 598.588 639.411 593.393C641.001 592.572 642.751 592.125 644.531 592.087C647.971 592.946 649.581 593.496 649.411 593.668C648.021 599.595 647.581 605.707 648.111 611.776C648.091 612.065 648.191 612.35 648.381 612.566C648.811 612.525 649.201 612.343 649.511 612.051C655.081 606.46 659.281 603.666 662.121 603.666C663.661 603.464 665.211 603.385 666.761 603.426H669.961C672.471 602.649 675.171 602.835 677.551 603.941C680.261 604.8 680.991 605.762 679.991 606.896C678.761 608.16 677.611 609.504 676.551 610.917C675.441 613.13 673.771 615.013 671.711 616.38C671.211 616.772 670.681 617.126 670.131 617.445C668.651 618.476 667.961 619.266 667.961 619.61C667.611 623.111 666.591 626.516 664.981 629.643C663.331 631.979 663.091 633.078 664.121 633.078C665.261 633.436 666.231 634.209 666.831 635.243C667.071 635.449 667.351 635.243 667.691 635.002C670.641 631.165 673.871 627.55 677.341 624.179C678.841 622.767 680.211 621.228 681.431 619.575C685.071 620.658 688.471 622.403 691.471 624.729C691.811 625.76 690.781 626.825 688.241 627.925C685.641 628.832 683.291 630.326 681.361 632.288C678.541 634.704 675.991 637.421 673.771 640.397C673.431 641.084 674.491 642.939 677.211 645.792C679.311 647.634 681.201 649.709 682.841 651.977C683.601 653.681 684.511 655.313 685.561 656.856C684.871 655.825 685.111 656.065 686.351 657.749C689.031 661.494 690.261 663.934 689.781 664.964L689.511 665.239C688.081 665.93 686.791 666.871 685.691 668.022C680.101 671.039 673.901 672.788 667.551 673.142C667.161 673.052 666.801 672.85 666.521 672.558C666.521 672.18 666.761 671.939 667.311 671.767C667.791 671.31 668.351 670.95 668.961 670.702C671.721 669.427 674.341 667.885 676.791 666.098C680.231 662.662 677.651 656.684 669.131 648.232C668.271 647.373 667.721 647.373 667.551 648.232C667.031 648.823 666.571 649.465 666.181 650.156C663.931 652.612 661.861 655.23 659.991 657.989C657.401 661.415 655.391 665.246 654.051 669.328C653.711 670.805 653.021 671.424 652.161 671.218C650.631 670.95 649.151 670.427 647.801 669.671C648.041 669.671 647.801 669.671 647.011 669.328C646.221 668.984 646.731 668.366 647.281 667.472C647.831 666.579 649.451 664.037 651.611 660.601C653.471 657.715 654.841 655.378 655.901 653.557C657.911 649.736 660.261 646.112 662.951 642.733C662.171 641.228 660.621 640.287 658.931 640.294C657.281 640.122 656.761 639.435 657.281 638.129C658.811 635.085 659.731 631.769 659.991 628.371C659.651 626.275 658.521 625.691 656.561 626.791C656.001 627.787 655.651 628.887 655.531 630.02C656.211 631.498 655.531 633.456 653.601 636.308C651.761 638.71 650.721 641.63 650.651 644.658C650.821 646.582 650.651 647.888 650.131 648.403C648.901 649.709 646.701 649.537 643.261 647.888C641.951 647.373 641.611 646.651 642.131 645.723C646.041 637.95 650.461 630.446 655.351 623.252C658.201 620.507 661.951 618.895 665.901 618.716C666.151 618.4 666.411 618.101 666.691 617.823C667.831 613.116 667.721 610.16 666.421 608.958C663.911 606.415 660.681 607.308 656.661 611.639C654.651 613.827 652.841 616.198 651.271 618.716C646.221 627.684 642.301 634.384 639.411 638.748C637.201 640.452 635.671 642.888 635.081 645.62C634.741 646.754 633.781 646.823 632.091 645.861C631.061 644.83 630.621 644.212 630.791 644.04C632.551 642.025 633.911 639.692 634.811 637.167C636.341 633.099 638.141 629.137 640.201 625.313L640.001 625.348ZM630.791 618.476C626.671 617.961 624.841 616.827 625.361 615.246C625.811 613.944 626.571 612.769 627.561 611.81C627.721 610.969 627.981 610.146 628.351 609.37C628.911 607.892 629.741 606.532 630.791 605.35C632.271 603.872 632.951 603.357 632.951 603.701C633.171 607.102 634.091 610.421 635.631 613.46C636.971 615.109 637.141 616.174 636.251 616.689C634.621 617.741 632.731 618.314 630.791 618.339V618.476ZM626.491 634.144C624.841 634.693 622.511 633.113 619.451 629.265C618.757 628.351 618.565 627.155 618.936 626.069C619.623 625.004 620.413 624.489 621.371 624.661C624.691 625.09 628.041 625.183 631.371 624.935C634.261 625.279 635.121 626.413 634.091 628.371C631.761 630.587 629.211 632.57 626.491 634.281V634.144ZM637.901 660.12C633.231 663.349 630.001 664.483 628.141 663.349C626.501 659.085 626.891 654.303 629.211 650.362C629.721 649.503 630.241 649.056 630.581 649.056C630.931 649.056 631.301 649.4 631.651 650.087C633.001 653.09 635.291 655.571 638.181 657.165C639.411 658.024 639.311 658.986 637.901 660.12Z" fill="black"/>
</svg>
